<?xml version="1.0" standalone="no"?>
<!DOCTYPE svg PUBLIC "-//W3C//DTD SVG 1.1//EN" "http://www.w3.org/Graphics/SVG/1.1/DTD/svg11.dtd" >
<svg xmlns="http://www.w3.org/2000/svg">
<metadata></metadata>
<defs>
<font id="RSURegular" horiz-adv-x="0" >
<font-face units-per-em="2048" ascent="1638" descent="-410" />
<missing-glyph horiz-adv-x="569" />
<glyph unicode="&#xe2f;&#xe2f;" horiz-adv-x="1024" />
<glyph unicode="&#xe4f;&#x22;" horiz-adv-x="1064" d="M203 410q0 138 99 235q100 98 237 98t235 -98t98 -235q0 -139 -98 -239q-97 -99 -235 -99t-237 99t-99 239zM256 410q0 -122 82 -202q85 -83 201 -83q115 0 200 83q82 80 82 201q0 58 -21.5 110t-60.5 90q-85 83 -200 83q-116 0 -201 -83q-82 -80 -82 -199zM344 408 q0 82 58 138t135 56q82 0 137 -58q57 -58 57 -135q0 -40 -15.5 -76t-41.5 -61q-59 -57 -135 -57q-83 0 -139 57q-56 59 -56 136z" />
<glyph unicode="&#xe24;&#xe32;" horiz-adv-x="1873" d="M113 27v888q0 27 24 37q165 85 371 95q239 0 366 -117q103 -94 103 -236v-1075q0 -27 -27 -27h-108q-27 0 -27 27v1045q0 128 -100 182q-74 41 -174 41t-167 -19.5t-81 -27.5q-21 -12 -21 -35v-619q0 -27 27 -26h70q27 0 22 -25l-16 -108q-4 -27 -31 -27h-207 q-25 0 -24 27zM1065 928q-10 21 8 37q154 79 347 79q96 0 170.5 -32.5t116.5 -83.5q73 -89 73 -226v-1085q0 -27 -27 -27h-102q-25 0 -25 27v1102q0 113 -90 159q-63 31 -176 31q-110 5 -215 -51q-23 -10 -39 10z" />
<glyph unicode="&#xe26;&#xe32;" horiz-adv-x="1871" d="M2 133q-4 27 23 27h69q27 0 27 26v729q0 27 24 37q170 87 371 95q239 0 366 -117q103 -94 103 -236v-1075q0 -27 -24 -27h-111q-27 0 -27 27v1045q0 128 -100 182q-74 41 -174 41t-167 -19.5t-81 -27.5q-20 -11 -20 -35v-778q0 -27 -27 -27h-205q-27 0 -31 27zM1065 928 q-10 21 8 37q154 79 347 79q96 0 170.5 -32.5t116.5 -83.5q73 -89 73 -226v-1085q0 -27 -27 -27h-102q-25 0 -25 27v1102q0 113 -90 159q-63 31 -176 31q-110 5 -215 -51q-23 -10 -39 10z" />
<glyph />
<glyph horiz-adv-x="2048" />
<glyph unicode="&#xd;" horiz-adv-x="399" />
<glyph unicode=" "  horiz-adv-x="569" />
<glyph unicode="&#x09;" horiz-adv-x="569" />
<glyph unicode="&#xa0;" horiz-adv-x="569" />
<glyph unicode="!" horiz-adv-x="409" d="M100 41v86q0 39 35 39h131q31 0 39 -6t8 -29v-84q0 -23 -6 -35t-35 -12h-127q-33 0 -39 12.5t-6 28.5zM119 1059q0 27 5 41t34 14h96q29 0 36 -12t5 -39l-21 -688q0 -29 -6 -38t-22 -9h-64q-29 0 -35 8t-8 41z" />
<glyph unicode="&#x22;" horiz-adv-x="616" d="M88 1343q-4 29 1 41.5t28 12.5h102q27 0 34 -14.5t3 -43.5l-27 -366q-2 -29 -11 -36t-25 -7h-43q-16 0 -23.5 10t-11.5 43zM360 1341q-2 29 4.5 42.5t30.5 13.5h103q23 0 28.5 -12.5t3.5 -43.5l-28 -360q-3 -51 -35 -51h-41q-18 0 -26.5 8t-12.5 37z" />
<glyph unicode="#" horiz-adv-x="942" d="M4 386q-8 7 0 38l6 43q4 23 16.5 27t41.5 4h118l54 225h-127q-23 0 -32 7t-5 36l10 43q4 25 14.5 29t40.5 4h119l70 311q6 27 15 37t42 10h74q23 0 23.5 -10t-3.5 -39l-69 -309h215l71 313q4 25 12.5 35t37.5 10h67q29 0 34 -10t-1 -39l-68 -309h115q33 0 40 -7.5 t3 -29.5l-8 -45q-4 -23 -16.5 -30t-43.5 -7h-114l-51 -225h120q29 0 36 -6.5t3 -26.5l-6 -39q-6 -27 -18.5 -37t-42.5 -10h-115l-74 -330q-8 -33 -16 -41t-33 -8h-78q-23 0 -26.5 12.5t4.5 42.5l73 324h-217l-75 -332q-6 -31 -14.5 -39t-26.5 -8h-74q-25 0 -33 10t0 43 l74 326h-125q-29 0 -37 7zM338 498h215l53 225h-217z" />
<glyph unicode="$" horiz-adv-x="1003" d="M102.5 82q-0.5 27 5.5 56q14 74 31 71q16 -6 41 -15.5t60 -19.5q86 -24 192 -24q270 0 270 167q0 80 -50 127q-50 50 -181 103q-159 65 -217.5 118.5t-86.5 111t-28 150t74 179t238 108.5v121q0 27 10 37t41 10h116q23 0 26 -11t3 -40v-108q115 -5 153 -18t49 -17 t12 -28.5t-6 -52.5t-19.5 -49.5t-24.5 -19.5q-115 37 -239 37q-228 0 -228 -162q0 -72 54.5 -114.5t196.5 -98.5q316 -126 316 -372q0 -212 -184 -294q-55 -24 -119 -34v-117q0 -29 -5 -37t-28 -8h-116q-25 0 -35 10.5t-10 42.5v95q-127 4 -202 24.5t-103 40.5q-6 4 -6.5 31 zM449 -201h88h-88z" />
<glyph unicode="%" horiz-adv-x="1310" d="M104 795v192q0 115 64.5 172.5t173.5 57.5q151 0 204 -114q19 -42 19 -106v-202q0 -109 -71 -161q-58 -44 -159.5 -44t-166 50t-64.5 155zM238 809q0 -43 25.5 -70.5t77.5 -27.5t73.5 29.5t21.5 64.5v162q0 125 -92 125q-63 0 -84.5 -36t-21.5 -95v-152zM295 11.5 q-6 11.5 10 41.5l572 1112q14 27 24 36t41 9h74q23 0 24.5 -10t-14.5 -39l-573 -1114q-14 -29 -23.5 -38t-30.5 -9h-71q-27 0 -33 11.5zM752 186v191q0 117 64.5 174t172.5 57q153 0 204 -113q19 -42 19 -106v-203q0 -158 -142 -194q-40 -10 -81 -10q-109 0 -173 50t-64 154 zM885 201q0 -41 25.5 -70t77.5 -29t73.5 31t21.5 64v161q0 123 -92 123q-63 0 -84.5 -35.5t-21.5 -93.5v-151z" />
<glyph unicode="&#x26;" horiz-adv-x="1105" d="M63 305q0 130 113 232q51 45 115 77q16 10 4 27q-56 52 -80.5 116t-24.5 119t24 104.5t62 83.5q81 71 203 71q110 0 190 -67q83 -70 83 -179q0 -158 -220 -279q-14 -10 -4 -24l240 -262q6 -9 14 -17q6 6 7.5 8t5.5 7l39 47q10 16 26 4l70 -62q14 -10 4 -28l-49 -60 q-10 -18 2 -30l162 -179q4 -4 3 -9t-12 -5h-139q-24 0 -33 14l-75 78q-12 12 -29 4q-139 -112 -318 -112q-153 0 -262 82q-121 89 -121 239zM227 327.5q0 -57.5 18.5 -94t50.5 -62.5q64 -52 157 -52t215 76q14 10 4 24l-264 297q-20 27 -105 -55q-76 -76 -76 -133.5z M336 893q0 -92 88 -184q12 -12 31 -7q77 47 115 97.5t38 98.5t-39 82t-96 34t-97 -38t-40 -83z" />
<glyph unicode="'" horiz-adv-x="385" d="M106 1346q0 29 4.5 40t26.5 11h101q29 0 35 -13.5t6 -44.5l-29 -366q-4 -27 -12.5 -35t-24.5 -8h-41q-16 0 -24.5 10t-12.5 45z" />
<glyph unicode="(" horiz-adv-x="507" d="M117 514q0 224 77 434q68 187 156 271q8 10 36 4t54.5 -19.5t44 -30t7.5 -26.5q-75 -79 -138 -256q-69 -196 -69 -377q0 -186 71 -387q60 -172 125 -244q19 -23 -52 -59q-74 -37 -89 -19q-82 86 -146 267q-77 219 -77 442z" />
<glyph unicode=")" horiz-adv-x="516" d="M29 1147q-10 10 7 26.5t44 30.5q70 35 90 15q91 -91 156 -271q77 -210 77 -437q0 -124 -22.5 -235.5t-54.5 -203.5q-61 -172 -146 -267q-15 -18 -66 7.5t-68 42t-7 28.5q63 67 126 244q71 199 71 387q0 183 -70 377q-63 175 -137 256z" />
<glyph unicode="*" horiz-adv-x="614" d="M25 977q-7 6 0 22l22 74q8 23 20.5 24t34.5 -10l158 -65l-14 172q-2 25 2 34t20 9h76q23 0 29 -11.5t4 -35.5l-17 -172l164 69q20 10 30.5 9.5t14.5 -17.5l25 -75q6 -23 -3 -31t-34 -12l-166 -41l115 -129q16 -18 18 -27.5t-14 -20.5l-61 -49q-18 -12 -28.5 -6t-25.5 29 l-88 147l-90 -149q-23 -39 -43 -21l-63 45q-16 14 -14.5 25.5t18.5 30.5l112 131l-170 39q-25 6 -32 12z" />
<glyph unicode="+" horiz-adv-x="1003" d="M104 537v75q0 29 10.5 34t39.5 5h268v271q0 25 7 36t32 11h76q29 0 33.5 -10.5t4.5 -38.5v-269h265q31 0 44 -4t13 -26v-82q0 -25 -14.5 -30t-46.5 -5h-261v-268q0 -33 -5 -45.5t-27 -12.5h-80q-29 0 -35 13.5t-6 46.5v266h-277q-25 0 -33 6t-8 27z" />
<glyph unicode="," horiz-adv-x="448" d="M93.5 -143.5q10.5 24.5 23 59.5t23.5 71q19 69 22.5 121t32.5 52h124q29 0 35 -9.5t2 -25.5q-23 -98 -80 -178t-129 -129q-18 -15 -35 -4q-29 18 -18.5 42.5z" />
<glyph unicode="-" horiz-adv-x="661" d="M37 498v80q0 29 11 32.5t40 3.5h469q33 0 47 -4t14 -26v-80q0 -27 -11 -34t-50 -7h-475q-45 0 -45 35z" />
<glyph unicode="." horiz-adv-x="448" d="M117 53v88q0 45 33 45h133q35 0 43 -10t8 -29v-88q0 -23 -4 -41t-35 -18h-127q-51 0 -51 53z" />
<glyph unicode="/" horiz-adv-x="632" d="M8 10q-6 10 8 39l418 1034q10 25 20.5 34t41.5 9h104q23 0 23 -9t-11 -36l-419 -1038q-12 -29 -21.5 -36t-30.5 -7h-102q-25 0 -31 10z" />
<glyph unicode="0" horiz-adv-x="1046" d="M150 328v438q0 307 237 364q74 17 157 17t151.5 -15.5t120.5 -55.5q112 -86 112 -292v-422q0 -221 -116 -310q-83 -64 -260 -64q-73 0 -144.5 13t-129.5 50q-128 83 -128 277zM328 338q0 -109 62.5 -155t134 -46t110.5 10.5t65 36.5q54 51 54 181v380q0 135 -45 192.5 t-156 57.5q-138 0 -185 -63q-40 -55 -40 -197v-397z" />
<glyph unicode="1" horiz-adv-x="614" d="M123 954v66q0 18 10 27.5t43 19.5l107 39q46 16 71 16h97q27 0 29.5 -12t2.5 -41v-1022q0 -29 -4.5 -38t-27.5 -9h-109q-23 0 -30 12.5t-7 40.5v840q0 18 -6 25.5t-25 7.5h-116q-23 0 -29 14q-6 6 -6 14z" />
<glyph unicode="2" horiz-adv-x="1046" d="M143 37v74q0 165 106 303q76 98 210 174q180 99 237 181q23 32 23 67q0 157 -213 157q-100 0 -162.5 -29.5t-97.5 -50.5q-10 -6 -23.5 13.5t-22.5 47.5q-26 74 -5.5 85.5t48 25t68.5 25.5q99 29 248.5 29t248.5 -69t99 -210q0 -172 -223 -315q-61 -39 -111.5 -67 t-87 -55.5t-64.5 -62.5q-64 -78 -67 -172q0 -23 10.5 -28.5t34.5 -5.5h457q29 0 40 -5.5t11 -21.5v-100q1 -27 -28 -27h-703q-10 0 -21.5 7t-11.5 30z" />
<glyph unicode="3" horiz-adv-x="1005" d="M146.5 92q0.5 25 9.5 50q22 68 41 61q147 -64 259.5 -64t172 45t59.5 131q0 84 -72 137q-64 47 -178 56q-23 2 -34 4t-11 25v67q0 23 14.5 27t36.5 6q111 6 176.5 56t65.5 134.5t-59.5 131.5t-149.5 47q-150 0 -250 -72q-18 -11 -37 54q-21 69 -3.5 82t41.5 26.5t59 25.5 q78 25 196 25q180 0 274.5 -74t94.5 -201t-59.5 -202.5t-151.5 -98.5q98 -29 158.5 -97t60.5 -162.5t-28.5 -152t-77.5 -95t-113.5 -57t-161 -19.5t-188.5 24.5t-135 48.5q-10 6 -9.5 31z" />
<glyph unicode="4" horiz-adv-x="921" d="M70 244v71q0 28 16 58l471 696q29 51 57 51h105q23 0 24.5 -9t1.5 -30v-725h70q16 0 20.5 -5t4.5 -23v-72q0 -37 -27 -37h-68v-194q0 -14 -6 -19.5t-24 -5.5h-78q-23 0 -33 6t-10 25v188h-490q-18 0 -26 4t-8 21zM250 356h344v514z" />
<glyph unicode="5" horiz-adv-x="1003" d="M144.5 128.5q15.5 49.5 28.5 68t28 12.5q35 -16 102.5 -43t168.5 -27t153.5 58.5t52.5 133.5q0 234 -402 271q-61 9 -61 72v418q0 36 35 36h571q29 0 29 -26v-101q0 -16 -11.5 -21t-39.5 -5h-379q-27 0 -36 -6t-9 -29v-180q0 -12 7 -17.5t50 -12.5q108 -18 213.5 -64.5 t167 -125.5t61.5 -208q0 -147 -107 -245q-108 -99 -280 -99q-142 0 -214 22q-91 29 -126 56q-18 13 -2.5 62.5z" />
<glyph unicode="6" horiz-adv-x="1026" d="M141 311v463q0 205 95.5 294t314.5 89q88 0 167 -18.5t92 -24.5t13 -31.5t-6 -54.5t-17.5 -51.5t-22.5 -19.5t-32.5 11.5t-52.5 16.5q-80 21 -149.5 21t-115.5 -17.5t-69 -48.5q-39 -51 -39 -166v-43q0 -39 23 -20q96 63 192.5 63t161 -21.5t110.5 -67.5q97 -97 97 -290 q0 -195 -78 -289q-89 -106 -282 -106q-95 0 -165.5 18.5t-123.5 56.5q-113 81 -113 236zM319 348q0 -104 54.5 -150t151.5 -46t147.5 53t50.5 186t-49 183.5t-125 50.5q-127 0 -207 -66q-23 -23 -23 -39v-172z" />
<glyph unicode="7" horiz-adv-x="1024" d="M143 997v86q0 20 6.5 28.5t28.5 8.5h664q39 0 48 -13t1 -40l-359 -1028q-13 -39 -38 -39h-109q-25 0 -35 6t0 31l316 893q10 35 -39 35h-453q-31 0 -31 32z" />
<glyph unicode="8" horiz-adv-x="1024" d="M127 291q0 98 51 183q44 74 105 95q-53 25 -96.5 91.5t-43.5 149.5t23.5 142.5t69.5 103.5q101 95 268 95q194 0 293 -93q92 -86 92 -231q0 -94 -53 -171q-46 -66 -109 -87q90 -31 136 -106.5t46 -161.5t-28.5 -141.5t-79.5 -91.5q-103 -74 -279 -74q-395 0 -395 297z M299 315.5q0 -86.5 59.5 -130.5t160.5 -44t157.5 44t56.5 129t-57 142.5t-163 57.5t-160 -56t-54 -142.5zM313 816q0 -87 54.5 -130t146.5 -43t148.5 44t56.5 114q0 104 -57.5 153.5t-149.5 49.5t-145.5 -50.5t-53.5 -137.5z" />
<glyph unicode="9" horiz-adv-x="1042" d="M143 750q0 195 78 288q89 107 291 107q175 0 280 -75q113 -80 113 -236v-463q0 -209 -95 -296q-50 -46 -127.5 -67.5t-147.5 -21.5t-115 5t-92 11q-102 13 -142 29q-12 6 -12 31.5t6 54t17.5 50t21.5 18.5t40 -11t70 -16q105 -21 174 -21t115 17.5t70 49.5q37 51 37 165 v45q0 35 -23 20q-92 -65 -190 -65t-162.5 21.5t-110.5 67.5q-96 96 -96 292zM322 753q0 -134 49 -184.5t126 -50.5q125 0 205 68q23 16 23 39v172q0 194 -209 194q-94 0 -144 -52t-50 -186z" />
<glyph unicode=":" horiz-adv-x="450" d="M115 51v88q0 45 32 45h138q35 0 42 -9t7 -28v-90q0 -20 -4 -38.5t-35 -18.5h-125q-55 0 -55 51zM121 735v90q0 29 7 42.5t32 13.5h125q47 0 47 -47v-84q0 -25 -8.5 -37.5t-32.5 -12.5h-123q-47 0 -47 35z" />
<glyph unicode=";" horiz-adv-x="462" d="M66 -145q61 124 71 270q2 39 31 39h125q29 0 35 -9.5t2 -25.5q-23 -98 -80 -178t-129 -129q-19 -15 -35 -5q-30 20 -20 38zM119 721v90q0 49 35 49h137q31 0 38 -12t7 -33v-86q0 -18 -6 -35.5t-31 -17.5h-129q-35 0 -43 12t-8 33z" />
<glyph unicode="&#x3c;" horiz-adv-x="864" d="M123 528v84q0 29 10 37t39 21l516 196q31 12 44 10t13 -24v-80q0 -27 -13 -36t-46 -19l-399 -142l399 -139q33 -10 46 -19t13 -36v-80q0 -25 -13 -26t-44 12l-512 194q-29 10 -41 18.5t-12 28.5z" />
<glyph unicode="=" horiz-adv-x="923" d="M119 434v64q0 29 12 34t43 5h571q29 0 38.5 -4.5t9.5 -32.5v-58q0 -29 -13.5 -32.5t-42.5 -3.5h-567q-29 0 -40 6t-11 22zM123 705v59q0 27 13.5 31t41.5 4h567q52 0 52 -29v-63q0 -29 -12.5 -34t-43.5 -5h-571q-27 0 -37 4t-10 33z" />
<glyph unicode="&#x3e;" horiz-adv-x="862" d="M121 299v80q0 27 13 36t46 19l400 139l-400 142q-33 10 -46 19t-13 36v80q0 23 13 25t44 -11l516 -196q29 -12 39 -20.5t10 -37.5v-84q0 -20 -12 -28.5t-41 -18.5l-512 -194q-31 -12 -44 -11.5t-13 25.5z" />
<glyph unicode="?" horiz-adv-x="720" d="M96 1133q126 84 263.5 84t222 -71t84.5 -194q0 -86 -38 -150.5t-83 -117.5t-83 -100t-38 -97v-86q0 -41 -37 -41h-106q-39 0 -35 39q-2 23 -2 44q0 49 11 92.5t49 89t78 90.5t71.5 92t31.5 104q0 164 -155 164q-51 0 -105.5 -25.5t-83.5 -48.5q-10 -6 -22.5 9.5 t-21.5 39.5q-23 63 -1 83zM225 53v82q0 16 9.5 29.5t25.5 13.5h139q29 0 37 -9t8 -26v-84q0 -23 -4 -41t-34 -18h-125q-56 0 -56 53z" />
<glyph unicode="@" horiz-adv-x="1271" d="M55 561q0 241 163 405q167 169 415 169q250 0 413 -159q160 -157 160 -415q0 -166 -69.5 -243.5t-180.5 -77.5q-66 0 -117 26.5t-69 75.5q-25 -43 -80 -76t-112.5 -33t-97.5 18.5t-70 57.5q-66 84 -66 243t55.5 249t161.5 90q139 0 197 -96v53q0 29 22 29h78 q25 0 30 -9.5t5 -25.5v-418q0 -35 22.5 -66.5t72.5 -31.5t83 55t33 170.5t-34 205t-96 153.5q-133 137 -343 137q-207 0 -335 -139q-126 -138 -126 -347q0 -225 129 -357q126 -130 336 -130q135 0 264 47q33 12 47 19t24.5 -3t16.5 -27q15 -40 -6 -53q-59 -29 -153.5 -50 t-213 -21t-226 42t-181.5 118q-152 158 -152 415zM492 512q0 -78 29.5 -130t96.5 -52q55 0 98 48q34 38 34 71v196q0 49 -22 83q-45 67 -112.5 67t-95.5 -47.5t-28 -139.5v-96z" />
<glyph unicode="A" horiz-adv-x="985" d="M40 7q-1 2 -1 5q0 10 8 37l328 1022q10 27 20.5 38t38.5 11h117q29 0 39 -11t20 -38l328 -1022q6 -18 6 -29t-6 -14q-12 -6 -35 -6h-110q-23 0 -27 7t-12 32l-70 215h-401l-68 -215q-8 -25 -14 -32t-27 -7h-115q-16 0 -19 7zM326 389h315l-156 512z" />
<glyph unicode="B" horiz-adv-x="921" d="M123 39v1028q0 27 4 40t29 13h299q207 0 310 -63.5t103 -218.5q0 -213 -170 -269q86 -27 137.5 -87t51.5 -194t-86 -211t-299 -77h-346q-23 0 -28 8t-5 31zM293 668q0 -16 6 -22.5t27 -6.5h129q129 0 183 42t54 137t-61 134t-182 39h-127q-29 -3 -29 -26v-297zM295 158 q0 -29 31 -29h127q129 0 193.5 37t64.5 139q0 193 -252 193h-131q-33 0 -33 -31v-309z" />
<glyph unicode="C" horiz-adv-x="921" d="M102 328v430q0 184 88 273q113 114 379 114q137 0 201 -25.5t75 -35.5q8 -7 8 -18q0 -6 -2 -12q-5 -20 -15 -44q-25 -56 -37 -56h-2q-29 12 -76 29.5t-135 17.5q-166 0 -234.5 -64.5t-68.5 -195.5v-397q0 -116 85 -172q68 -45 179 -45t170 22.5t88 32.5h3q24 0 39 -112 q3 -23 -3 -27q-35 -18 -118 -36.5t-194 -18.5q-217 0 -323.5 90t-106.5 250z" />
<glyph unicode="D" horiz-adv-x="1024" d="M123 53v1018q0 23 6 36t29 13h311q207 0 313 -70q131 -87 131 -290v-412q0 -206 -137 -290q-97 -58 -254 -58h-358q-16 0 -28.5 12.5t-12.5 40.5zM299 182q0 -16 7 -25.5t36 -9.5h129q116 0 166.5 30t74 75t23.5 119v377q0 125 -71.5 176t-192.5 51h-135q-25 0 -31 -7 t-6 -24v-762z" />
<glyph unicode="E" horiz-adv-x="921" d="M154 43v1026q0 23 4 37t26 14h570q29 0 36 -4t7 -20v-90q0 -18 -19.5 -21.5t-54.5 -3.5h-358q-43 0 -43 -25v-264q0 -23 8 -30t28 -7h320q35 0 43 -5t4 -21l-10 -86q-4 -25 -28.5 -27t-47.5 -2h-268q-27 0 -36 -8t-9 -27v-301q0 -27 12 -30t35 -3h389q33 0 46 -6t13 -24 v-88q0 -27 -33 -27h-598q-36 0 -36 43z" />
<glyph unicode="F" horiz-adv-x="839" d="M143 45v1026q0 23 4.5 36t26.5 13h549q29 0 36 -6t7 -18v-84q0 -20 -13 -26.5t-42 -6.5h-355q-43 0 -43 -25v-299q0 -23 8.5 -28.5t26.5 -5.5h311q35 0 43.5 -7.5t4.5 -21.5l-7 -86q-4 -23 -27.5 -26t-47.5 -3h-271q-23 0 -30 -8t-7 -29v-413q0 -27 -26 -27h-113 q-35 0 -35 45z" />
<glyph unicode="G" horiz-adv-x="1024" d="M100 367v350q0 86 14.5 163.5t63.5 135.5q108 129 387 129q136 0 238 -35q65 -22 94 -51q12 -12 -8 -54q-35 -71 -53 -71q-3 0 -5 2q-94 65 -256 65q-156 0 -220 -60q-70 -66 -70 -230v-328q0 -141 56 -200.5t180.5 -59.5t178.5 40t54 154v144q0 12 -4.5 22.5t-26.5 10.5 l-111 2q-16 0 -24 3t-8 21v78q0 10 3 18.5t19 8.5h250q47 0 59.5 -11.5t12.5 -52.5v-215q0 -63 -9.5 -126.5t-47.5 -115.5q-86 -116 -328 -116q-358 0 -421 230q-18 69 -18 149z" />
<glyph unicode="H" horiz-adv-x="1085" d="M131 57v1024q0 23 6 32t29 9h100q27 0 35 -10t8 -41v-385q0 -29 37 -29h412q27 0 26 27v397q0 41 45 41h99q29 0 33 -9t4 -30v-1034q0 -29 -6 -39t-29 -10h-107q-39 0 -39 45v436q0 23 -5 27t-25 4h-418q-16 0 -21.5 -4t-5.5 -21v-438q0 -29 -9 -39t-38 -10h-98 q-20 0 -26.5 13.5t-6.5 43.5z" />
<glyph unicode="I" horiz-adv-x="413" d="M117 43v1044q0 23 8 29t37 6h102q23 0 28 -9t5 -34v-1044q0 -18 -6 -26.5t-29 -8.5h-106q-23 0 -31 9t-8 34z" />
<glyph unicode="J" horiz-adv-x="512" d="M27 25q-3 9 -3 16q0 24 29 35q82 40 103 53q51 29 62 71t11 117v764q0 23 5.5 32t25.5 9h102q29 0 37.5 -10t8.5 -41v-821q0 -109 -31 -170q-42 -84 -206 -144q-44 -16 -70 -26q-7 -3 -13 -3q-16 0 -25 21z" />
<glyph unicode="K" horiz-adv-x="1024" d="M145 51v1020q0 31 10.5 40t32.5 9h103q25 0 30 -7t5 -36v-411l387 428q18 18 25 22t26 4h127q33 0 43 -6t-12 -27l-428 -469l460 -581q11 -14 11 -22q0 -15 -31 -15h-146q-20 0 -28 7t-25 28l-366 467l-43 -49v-414q0 -23 -5.5 -31t-27.5 -8h-105q-27 0 -35 10t-8 41z " />
<glyph unicode="L" horiz-adv-x="821" d="M133 53v1028q0 23 6 32t29 9h100q27 0 35 -11t8 -40v-901q0 -31 37 -31h400q25 0 27.5 -6t2.5 -24v-80q0 -20 -8 -24.5t-31 -4.5h-573q-23 0 -28 11.5t-5 41.5z" />
<glyph unicode="M" horiz-adv-x="1310" d="M152 51v1020q0 31 10 40t31 9h106q36 0 53 -28l291 -459q12 -16 23 0l284 454q20 33 51 33h117q27 0 30 -12t3 -39v-1028q0 -23 -6 -32t-31 -9h-92q-33 0 -42 10t-9 41v778q0 39 -23 2l-241 -399q-16 -25 -22.5 -33t-18.5 -8h-35q-16 0 -22.5 7.5t-22.5 35.5l-228 389 q-26 43 -26 -2v-782q0 -18 -6.5 -28.5t-32.5 -10.5h-88q-23 0 -38 7t-15 44z" />
<glyph unicode="N" horiz-adv-x="1169" d="M152 45v1026q0 49 28 49h99q47 0 54 -12t13 -21l471 -759q15 -26 23 -26q12 0 12 50v719q0 15 4 33q4 16 18 16h3h108q23 0 28 -11t5 -40v-1016q0 -31 -6 -45q-5 -12 -24 -12h-5l-100 2q-23 0 -34 8t-26 31l-469 747q-18 29 -26.5 32t-8.5 -34v-729q0 -31 -6 -42t-28 -11 h-90q-12 0 -27.5 4t-15.5 41z" />
<glyph unicode="O" horiz-adv-x="1128" d="M147 311v451q0 207 99.5 296t322.5 89q302 0 389 -195q33 -73 33 -184v-410q0 -234 -157 -319q-90 -49 -265 -49q-55 0 -129.5 9t-139.5 42q-153 79 -153 270zM324 350q0 -108 80 -164q66 -45 169 -45q115 0 169 45q71 57 71 193v377q0 127 -59.5 184t-189 57t-185 -62.5 t-55.5 -184.5v-400z" />
<glyph unicode="P" horiz-adv-x="976" d="M106 53v1028q0 23 7.5 31t31.5 8h330q223 0 324.5 -88t101.5 -266t-96 -271.5t-307 -93.5h-185q-16 0 -20 -5t-4 -25v-322q0 -31 -8.5 -40t-30.5 -9h-111q-27 0 -30 13.5t-3 39.5zM289 575q0 -20 6 -24t27 -4h194q86 0 144.5 52t58.5 175q0 102 -75 158q-65 49 -177 49 h-150q-28 0 -28 -27v-379z" />
<glyph unicode="Q" horiz-adv-x="1128" d="M143 319v451q0 207 98.5 296t321.5 89q304 0 391 -195q33 -73 33 -184v-409q0 -235 -139 -308q18 -23 63 -59.5t99 -58.5q27 -7 27 -30q0 -11 -5 -24l-31 -90q-11 -24 -29 -24q-5 0 -12 3q-26 9 -60 27.5t-74 48.5q-100 73 -158 150q-58 -4 -108 -4t-125 9t-139 42 q-153 78 -153 270zM317 358q0 -108 81 -164q65 -44 171 -44q114 0 167 44q71 57 71 193v377q0 127 -59.5 184.5t-189.5 57.5t-185.5 -62.5t-55.5 -185.5v-400z" />
<glyph unicode="R" horiz-adv-x="1044" d="M143 55v1026q0 23 7.5 32t31.5 9h330q217 0 321.5 -86t104.5 -241q0 -163 -144 -253q-38 -24 -62.5 -30t-27 -8t4.5 -17l223 -432q13 -28 13 -40q0 -15 -27 -15h-130q-23 0 -28.5 10t-16.5 33l-206 410q-8 14 -27 14h-168q-12 0 -14 -4t-2 -21v-393q0 -29 -8.5 -39 t-30.5 -10h-111q-27 0 -30 13.5t-3 41.5zM326 643q0 -23 6 -27t26 -4h197q86 0 144.5 45t58.5 138q0 99 -76 147q-63 41 -178 41h-150q-28 -3 -28 -29v-311z" />
<glyph unicode="S" horiz-adv-x="942" d="M86 81.5q0 24.5 4 52.5q9 67 29 67h2q33 -10 99.5 -33t155.5 -23t137 8.5t84 26.5q77 40 77 117.5t-49.5 124.5t-178.5 94q-154 61 -207 112q-102 97 -102 232q0 201 219 266q76 23 165.5 23t138.5 -4t80 -9q45 -9 79 -20q12 -4 12 -28.5t-7 -51.5q-17 -66 -39 -66 q-2 0 -5 1q-122 35 -240 35t-168 -40t-50 -108t53 -108.5t170 -81.5q164 -63 242.5 -147.5t78.5 -195t-36.5 -172t-97 -98.5t-138.5 -51t-189.5 -14t-196.5 20.5t-116 42.5q-6 4 -6 28.5z" />
<glyph unicode="T" horiz-adv-x="919" d="M33 1001v95q0 16 10 20t35 4h764q23 0 34 -2t11 -18v-99q0 -10 -5 -16t-28 -6h-268q-25 0 -32 -5t-7 -24v-899q0 -31 -6 -41t-33 -10h-105q-27 0 -29.5 8t-2.5 43v899q0 18 -7.5 23.5t-29.5 5.5h-266q-35 0 -35 22z" />
<glyph unicode="U" horiz-adv-x="1005" d="M104 328v759q0 39 27 39h107q23 0 32 -10t9 -39v-692q0 -119 60 -182.5t143.5 -63.5t126 17.5t67.5 50.5q45 61 45 182v698q0 39 27 39h110q20 0 29.5 -10t9.5 -39v-723q0 -215 -134 -305q-94 -63 -266 -63q-67 0 -137.5 16t-127.5 55q-128 89 -128 271z" />
<glyph unicode="V" horiz-adv-x="1017" d="M59 1071q-4 16 -4 27q1 13 7 17q12 7 30 7h111q23 0 28 -8t13 -33l272 -862l270 862q8 25 13.5 33t21.5 8h103q23 0 33 -6q5 -3 5 -10q0 -6 -4 -16l-335 -1055q-6 -18 -15.5 -26.5t-32.5 -8.5h-133q-27 0 -36 9t-13 28z" />
<glyph unicode="W" horiz-adv-x="1497" d="M47 1071q-6 18 -6 29.5t6 14.5q12 7 33 7h108q23 0 28 -8t15 -33l271 -862l166 477l-119 375q-12 37 -1 44t32 7h110q23 0 27 -8t14 -33l270 -864l273 864q8 25 13 33t22 8h100q23 0 33 -6q6 -4 6 -13q0 -6 -2 -13l-338 -1057q-6 -18 -14.5 -25.5t-32.5 -7.5h-125 q-27 0 -36 8t-15 29l-140 430l-153 -432q-6 -20 -14.5 -27.5t-32.5 -7.5h-117q-25 0 -34 9t-15 28z" />
<glyph unicode="X" horiz-adv-x="1064" d="M50 13q0 11 20 36l180 254q35 47 66.5 93t60.5 84t55 77l-352 518q-12 18 -12 29q0 16 28 16h121q25 0 40 -9t36 -42l250 -369l248 369q23 33 35 42t40 9h101q27 0 28.5 -11t-14.5 -34l-340 -502l360 -524q14 -23 14 -34q-1 -3 -1 -5q-4 -10 -29 -10h-129q-35 0 -70 49 l-254 381q-24 -33 -43.5 -59.5t-44.5 -61.5q-73 -105 -141 -200t-78 -102t-26 -7h-115q-34 0 -34 13z" />
<glyph unicode="Y" horiz-adv-x="1003" d="M45 1117q8 5 29 5h125q16 0 24 -6t21 -26l266 -472l131 238q135 246 145.5 256t34.5 10h99q27 0 32 -7q2 -2 2 -5q0 -9 -12 -29l-176 -311q-84 -150 -116 -203t-39 -67l-21 -39v-426q0 -35 -37 -35h-113q-31 0 -30 31v432l-359 629q-9 13 -9 19q0 4 3 6z" />
<glyph unicode="Z" horiz-adv-x="987" d="M66 18v48q0 18 28 63l537 848h-486q-35 0 -50 7t-11 30l4 80q2 14 7 21t34 7h702q37 0 37 -18v-47q0 -17 -32 -70l-531 -842h533q35 0 47 -5t12 -21v-88q0 -16 -8 -23.5t-37 -7.5h-758q-29 0 -28 18z" />
<glyph unicode="[" horiz-adv-x="514" d="M102 -104v1337q0 23 6.5 29t34.5 6h285q27 0 33 -6.5t6 -22.5v-80q0 -31 -39 -31h-113q-20 0 -26 -7t-6 -23v-1071q0 -29 32 -29h121q20 0 25.5 -9t5.5 -24v-82q0 -16 -8 -21t-29 -5h-285q-25 0 -34 8t-9 31z" />
<glyph unicode="\" horiz-adv-x="630" d="M6 1117q0 9 23 9h104q31 0 41 -9t21 -34l417 -1034q14 -29 8 -39t-30 -10h-103q-20 0 -29 7t-22 36l-420 1038q-10 27 -10 36z" />
<glyph unicode="]" horiz-adv-x="514" d="M47 -33q0 14 5 23.5t26 9.5h121q33 0 32 29v1071q0 16 -6 23t-26 7h-113q-39 0 -39 31v80q0 16 6 22.5t33 6.5h285q29 0 35 -6.5t6 -28.5v-1337q0 -23 -9.5 -31t-33.5 -8h-285q-20 0 -28.5 5t-8.5 21v82z" />
<glyph unicode="^" horiz-adv-x="614" d="M40 907.5q-1 10.5 9 34.5l180 410q10 20 17.5 32.5t21.5 12.5h68q20 0 27.5 -9.5t17.5 -31.5l184 -414q10 -25 9 -35t-21 -10h-64q-23 0 -28.5 12.5t-16.5 34.5l-137 322l-139 -322q-8 -23 -15.5 -35t-27.5 -12h-64q-20 0 -21 10.5z" />
<glyph unicode="_" horiz-adv-x="817" d="M0 -78q0 29 10 34t39 5h705q33 0 48 -5t15 -28v-30q0 -27 -11 -34t-50 -7h-713q-25 0 -34 7t-9 25v33z" />
<glyph unicode="`" horiz-adv-x="614" d="M111.5 1328q1.5 11 35.5 11h115q20 0 29.5 -8t21.5 -24l148 -211q33 -43 -8 -43h-64q-26 0 -51 30l-205 211q-23 23 -21.5 34z" />
<glyph unicode="a" horiz-adv-x="882" d="M55 409q0 455 277 455q190 0 270 -129v68q0 39 29 39h90q35 0 41 -11.5t6 -35.5v-734q0 -31 -5 -46t-34 -15h-88q-18 0 -28.5 7t-10.5 38v66q-25 -51 -98.5 -89t-152 -38t-130 23.5t-88.5 75.5q-78 110 -78 326zM233 354q0 -117 44.5 -184.5t132.5 -67.5q75 0 130 62 q48 54 48 96v287q0 64 -32 109.5t-65.5 67t-82.5 21.5q-86 0 -130.5 -60t-44.5 -200v-131z" />
<glyph unicode="b" horiz-adv-x="940" d="M127 61v1055q0 25 7 36t42 11h88q31 0 31 -51v-371q78 123 270 123q141 0 209 -119.5t68 -328.5q0 -334 -164 -410q-50 -24 -109 -24q-188 0 -274 106v-45q0 -31 -10.5 -37t-28.5 -6h-88q-29 0 -35 15.5t-6 45.5zM307 244q0 -39 35 -74q68 -68 149.5 -68t126 68t44.5 184 v131q0 117 -43.5 188.5t-129.5 71.5q-91 0 -139 -65q-43 -57 -43 -127v-309z" />
<glyph unicode="c" horiz-adv-x="825" d="M74 418q0 352 229 424q74 24 173 24q207 0 296 -116q3 -4 3 -8q-1 -10 -13 -25q-18 -21 -42 -37q-47 -29 -68 -29q-10 0 -13 6q-56 88 -159 88t-162.5 -59t-59.5 -188v-154q0 -127 61.5 -183.5t132.5 -56.5q120 0 185 99q5 10 22 10q20 0 57 -15q26 -10 44 -25 q15 -12 15 -22q0 -2 -1 -4q-90 -163 -302 -163q-211 0 -300 91q-98 100 -98 343z" />
<glyph unicode="d" horiz-adv-x="909" d="M96 416q0 209 66.5 328.5t210.5 119.5q96 0 159.5 -28.5t110.5 -94.5v371q0 51 29 51h90q35 0 42 -11t7 -36v-1055q0 -31 -6 -46t-35 -15h-88q-18 0 -28.5 6t-10.5 39v43q-94 -106 -274 -106q-273 0 -273 434zM274 354q0 -117 45.5 -184.5t133.5 -67.5q75 0 131 56 q45 45 45 86v309q0 70 -32 113t-65.5 61t-82.5 18q-86 0 -130.5 -71.5t-44.5 -188.5v-131z" />
<glyph unicode="e" horiz-adv-x="921" d="M98 415.5q0 229.5 89 342t270.5 112.5t271.5 -86t90 -245v-97q0 -35 -10 -51t-57 -16h-482q0 -254 250 -254q136 0 244 33q45 18 45 -15v-78q0 -20 -10.5 -28t-31.5 -14.5t-47 -10.5t-60 -9q-73 -11 -148 -11q-213 0 -313.5 99t-100.5 328.5zM276 526q0 -16 2.5 -24 t18.5 -8h334q12 0 14 7t2 23q-2 113 -43 173.5t-138.5 60.5t-143.5 -65.5t-46 -166.5z" />
<glyph unicode="f" horiz-adv-x="565" d="M57 731v53q0 35 27 35h82q-33 58 -33 116q0 2 1 5q1 60 12.5 95.5t37.5 64.5q56 63 168 63q87 0 144 -18q6 -4 6 -22.5t-4 -40.5q-10 -58 -23 -58q-54 12 -83.5 12t-61 -23.5t-31.5 -81t47 -112.5h111q27 0 32 -7t5 -24v-55q0 -14 -6 -24.5t-31 -10.5h-109v-645 q0 -53 -37 -53h-86q-45 0 -45 41v657h-86q-23 0 -30 7.5t-7 25.5z" />
<glyph unicode="g" horiz-adv-x="874" d="M78 442q0 316 150 409q51 32 118 32q189 0 277 -113q0 59 8 74.5t33 15.5h84q33 0 36.5 -15.5t3.5 -41.5v-666q0 -247 -75 -351q-74 -103 -250 -103q-117 0 -173.5 9t-82 14t-37.5 11.5t-12 28.5v80q0 16 11 19t54 -7q142 -33 226.5 -33t128 58.5t47.5 193.5q0 8 -1 28.5 t-1 29.5q-88 -115 -267 -115q-278 0 -278 442zM256 367q0 -246 176 -246q75 0 132 55q46 44 46 90v301q0 72 -32 114q-60 81 -147 81t-131 -73t-44 -191v-131z" />
<glyph unicode="h" horiz-adv-x="880" d="M102 55v1043q0 23 7.5 36t31.5 13h99q32 0 32 -49v-355q47 55 102.5 87t159.5 32t174 -60.5t70 -209.5v-520q0 -39 -5 -55.5t-28 -16.5h-102q-35 0 -35 57v498q0 61 -34.5 108.5t-120.5 47.5q-82 0 -137 -61q-46 -53 -46 -120v-475q0 -31 -6 -43t-24 -12h-99 q-25 0 -32 12.5t-7 42.5z" />
<glyph unicode="i" horiz-adv-x="372" d="M98 55v740q0 25 7.5 36t31.5 11h88q31 0 36 -10.5t5 -36.5v-740q0 -31 -5 -43t-30 -12h-98q-23 0 -29 12.5t-6 42.5zM98 1044v56q0 29 8.5 38t36.5 9h88q27 0 31 -14.5t4 -38.5v-54q0 -29 -7 -38t-28 -9h-92q-25 0 -33 8.5t-8 42.5z" />
<glyph unicode="j" horiz-adv-x="366" d="M-65 -257q15 77 28 77q40 -10 76.5 -10t45.5 28.5t9 59.5v895q0 27 8.5 40t36.5 13h88q41 0 41 -51v-922q0 -93 -28 -131q-50 -68 -150 -68q-72 0 -149 23q-9 3 -9 21q0 10 3 25zM98 1049v53q0 29 8.5 39t36.5 10h82q31 0 33 -10.5t2 -36.5v-60q0 -29 -5 -38t-28 -9h-88 q-25 0 -33 8.5t-8 43.5z" />
<glyph unicode="k" horiz-adv-x="759" d="M78 57v1061q0 23 8 35t33 12h86q29 0 34 -11t5 -36v-608l268 297q10 10 20.5 23.5t26.5 13.5h131q29 0 29 -10.5t-19 -32.5l-325 -363l352 -403q11 -13 11 -21q0 -14 -29 -14h-129q-16 0 -28.5 11.5t-31.5 31.5l-276 319v-303q0 -31 -5.5 -45t-27.5 -14h-86 q-29 0 -38 13.5t-9 43.5z" />
<glyph unicode="l" horiz-adv-x="339" d="M86 51v1071q0 20 8 30.5t33 10.5h88q29 0 34 -10t5 -37v-1061q0 -31 -5 -43t-28 -12h-92q-27 0 -35 9t-8 42z" />
<glyph unicode="m" horiz-adv-x="1333" d="M106 57v738q0 23 8.5 35t32.5 12h91q20 0 29 -16.5t9 -71.5q43 55 96.5 80.5t136.5 25.5t132 -30.5t84 -108.5q99 139 262 139q238 0 238 -268v-520q0 -39 -6 -55.5t-29 -16.5h-94q-27 0 -34 13.5t-7 41.5v500q0 156 -135.5 156t-167.5 -156v-483q0 -39 -7.5 -55.5 t-29.5 -16.5h-99q-35 0 -34 55v500q0 156 -140 156q-86 0 -132 -61q-36 -50 -36 -120v-471q0 -31 -5 -45t-27 -14h-88q-29 0 -38.5 13.5t-9.5 43.5z" />
<glyph unicode="n" horiz-adv-x="862" d="M98 57v738q0 23 7.5 35t31.5 12h90q23 0 31 -22.5t8 -76.5q91 117 262 117q106 0 176 -59.5t70 -208.5v-520q0 -39 -7 -55.5t-30 -16.5h-92q-41 0 -41 55v500q0 61 -34.5 107.5t-120.5 46.5t-139 -61q-44 -49 -44 -118v-471q0 -31 -5 -45t-30 -14h-88q-27 0 -36 13.5 t-9 43.5z" />
<glyph unicode="o" horiz-adv-x="925" d="M84 424q0 349 230 422q73 24 165 24q184 0 276.5 -102t92.5 -328q0 -450 -377 -450q-203 0 -290 91q-97 101 -97 343zM264 350q0 -129 61.5 -184t152.5 -55t144.5 70.5t53.5 187.5v141q0 104 -45 172t-147.5 68t-161 -58.5t-58.5 -187.5v-154z" />
<glyph unicode="p" horiz-adv-x="921" d="M123 -258v1061q0 27 5 42t38 15h84q41 0 41 -45v-57q92 123 276 123q137 0 203 -119t66 -320q0 -442 -279 -442q-178 0 -266 104v-362q0 -51 -31 -51h-92q-31 0 -38 11t-7 40zM303 262q0 -38 35 -73q68 -68 143 -68q176 0 176 246v131q0 119 -45 191.5t-129 72.5 q-87 0 -137 -68q-43 -56 -43 -127v-305z" />
<glyph unicode="q" horiz-adv-x="901" d="M90 440q0 316 150 409q51 32 118 32q175 0 279 -123v57q0 23 6 33t29 10h88q33 0 38 -11t5 -36v-1079q0 -23 -7 -33t-36 -10h-94q-16 0 -22.5 6t-6.5 29v380q-86 -104 -268 -104q-279 0 -279 440zM268 367q0 -246 176 -246q75 0 132 53q47 42 47 82v309q0 70 -32 114 t-65.5 63.5t-83.5 19.5q-84 0 -129 -74t-45 -190v-131z" />
<glyph unicode="r" horiz-adv-x="571" d="M84 57v738q0 23 7 35t32 12h90q39 0 39 -39v-80q97 131 260 131q10 0 19.5 -2t7.5 -16l-4 -99q-6 -23 -33 -23h-8q-64 0 -118 -32q-126 -72 -126 -152v-471q0 -31 -5 -45t-28 -14h-88q-29 0 -37 14.5t-8 42.5z" />
<glyph unicode="s" horiz-adv-x="684" d="M36 82q6 42 13.5 59t26.5 11t68 -21.5t145 -15.5q168 0 168 110q0 47 -42 87t-107.5 72t-105.5 56.5t-70 53.5q-64 60 -64 133t24.5 116t65.5 71q79 54 193 54q176 0 245 -26q13 -9 3 -46q-20 -71 -40 -71h-2q-96 25 -172 25q-147 0 -147 -101q0 -37 45 -68.5t106 -62.5 t106.5 -60.5t74.5 -64.5q61 -72 61 -176q0 -231 -301 -231q-183 0 -285 49q-11 4 -11 27q1 9 2 20z" />
<glyph unicode="t" horiz-adv-x="552" d="M35 743v60q0 20 6 26.5t31 6.5h78v155q0 23 13 30t34 9l73 17q7 1 13 1q16 0 22 -8q8 -10 8 -32v-172h160q37 0 37 -35v-60q0 -16 -6 -24t-33 -8h-152v-506q0 -84 70 -84q44 0 84 10q23 0 23 -97q0 -20 -7 -22q-60 -18 -155 -18q-191 0 -191 205v514h-82q-26 0 -26 32z " />
<glyph unicode="u" horiz-adv-x="903" d="M109 250v536q0 29 8 42.5t30 13.5h93q43 0 43 -58v-497q0 -63 33.5 -108.5t117.5 -45.5q89 0 140 59q44 53 44 119v471q0 31 5.5 45.5t29.5 14.5h88q27 0 35 -14.5t8 -43.5v-737q0 -23 -5.5 -35t-30.5 -12h-91q-23 0 -31 21.5t-8 74.5q-55 -59 -116.5 -85.5t-129 -26.5 t-112.5 14t-79 46q-72 68 -72 206z" />
<glyph unicode="v" horiz-adv-x="837" d="M35 807q-3 8 -3 14q0 21 36 21h96q34 0 43 -37l217 -608l229 608q4 10 15.5 23.5t25.5 13.5h80q25 0 29 -8q1 -2 1 -7q0 -9 -7 -26l-291 -754q-10 -31 -22.5 -39t-34.5 -8h-89q-41 0 -57 43z" />
<glyph unicode="w" horiz-adv-x="1126" d="M33 809q-3 8 -3 14q0 21 36 21h94q28 0 43 -39l168 -612l127 403l-64 213q-10 35 35 35h92q30 0 45 -39l166 -612l174 612q20 39 43 39h76q27 0 31 -10q1 -3 1 -6q0 -9 -7 -25l-236 -756q-12 -31 -24.5 -39t-34.5 -8h-72q-42 0 -57 45l-99 352l-125 -350q-12 -31 -24 -39 t-35 -8h-68q-42 0 -57 45z" />
<glyph unicode="x" horiz-adv-x="737" d="M19 14q0 13 20 41l244 361l-238 381q-16 25 -15 36t33 11h111q20 0 31.5 -12.5t27.5 -38.5l142 -234l145 234q16 27 28.5 39t33.5 12h88q35 0 35 -11.5t-15 -35.5l-231 -361l239 -381q15 -26 15 -39q-1 -2 -1 -4q-4 -12 -26 -12h-102q-29 0 -40.5 11.5t-31.5 41.5 l-143 238l-166 -238q-20 -35 -31.5 -44t-34.5 -9h-92q-26 0 -26 14z" />
<glyph unicode="y" horiz-adv-x="821" d="M33 805q-4 9 -4 15q0 20 37 20h116q18 0 20.5 -10.5t6.5 -26.5l213 -578l215 578q22 37 43 37h84q27 0 31 -10q1 -2 1 -5q0 -10 -8 -26l-419 -1075q-17 -39 -56 -39h-55q-39 0 -25 34l105 279z" />
<glyph unicode="z" horiz-adv-x="778" d="M54 26q-1 4 -1 8q0 17 17 42l405 647h-364q-25 0 -33 4t-8 29v55q0 20 9 25.5t25 5.5h549q25 0 45.5 -11.5t-0.5 -42.5l-419 -669h411q23 0 33 -4t10 -31v-51q0 -23 -8 -28t-31 -5h-579q-54 0 -61 26z" />
<glyph unicode="{" horiz-adv-x="614" d="M61 541v96q0 16 23 20q68 8 117 50.5t43 107.5l-23 227q-10 102 40 165t167 63h78q29 0 29 -27v-88q0 -23 -29 -22h-35q-37 0 -64.5 -24t-23.5 -75l25 -252q4 -69 -54 -128q-55 -54 -123 -62q71 -13 125 -74q56 -64 52 -141l-23 -262q-8 -115 78 -115h49q23 0 23 -23v-96 q0 -23 -33 -22h-90q-90 0 -145.5 54t-45.5 175l23 262q4 63 -42 109.5t-118 56.5q-23 4 -23 25z" />
<glyph unicode="|" horiz-adv-x="589" d="M213 -358v1519q0 27 7 37t38 10h88q23 0 26 -10t3 -39v-1524q0 -29 -5 -37t-26 -8h-84q-29 0 -38 9.5t-9 42.5z" />
<glyph unicode="}" horiz-adv-x="616" d="M80 -23q0 23 22 23h50q84 0 77 115l-22 262q-4 79 52 141q55 61 124 74q-67 8 -121 62q-59 59 -55 128l24 252q4 51 -23.5 75t-64.5 24h-34q-29 0 -29 22v88q0 27 29 27h77q117 0 167 -62.5t40 -165.5l-22 -227q-6 -66 43 -107.5t116 -50.5q23 -4 23 -20v-96 q0 -20 -23 -25q-72 -10 -117.5 -56t-41.5 -110l22 -262q8 -121 -46 -175t-144 -54h-90q-33 0 -33 22v96z" />
<glyph unicode="~" horiz-adv-x="714" d="M55 428q-25 4 19 74q69 110 162 110q42 0 95 -32q102 -62 135 -62q56 0 93 72q10 16 25 10l71 -27q19 -8 9 -26q-37 -72 -84.5 -124t-116.5 -52q-38 0 -92 32.5t-80.5 48t-52 15.5t-52 -19.5t-37 -38t-15.5 -18.5t-13 4z" />
<glyph unicode="&#xe00;" horiz-adv-x="399" />
<glyph unicode="&#xe01;" horiz-adv-x="1077" d="M115 27v888q0 27 24 37q170 87 371 95q239 0 366 -117q103 -94 103 -236v-667q0 -27 -27 -27h-108q-27 0 -27 27v637q0 128 -100 182q-74 41 -174 41t-167 -19.5t-81 -27.5q-21 -12 -21 -35v-778q0 -27 -24 -27h-109q-27 0 -26 27z" />
<glyph unicode="&#xe02;" horiz-adv-x="933" d="M63 342v211q0 59 37 97t71 66t56.5 50t22.5 51v45q0 27 -27 27h-133q-27 0 -22 26l12 89q4 27 31 26h274q27 0 27 -26v-191q0 -63 -36 -103t-71 -70t-58.5 -54.5t-23.5 -59.5v-157q0 -182 144 -213q39 -9 107 -9t115.5 18.5t57.5 26t12.5 12.5t2.5 25v775q0 27 26 26h107 q27 0 26 -26v-881q0 -27 -22 -39q-94 -48 -181.5 -70t-179.5 -22t-173 32.5t-126 83.5q-76 85 -76 234z" />
<glyph unicode="&#xe03;" horiz-adv-x="937" d="M23 915l12 89q2 10 16.5 18t33 8t36.5 -18l41 -45q16 -18 35 0l43 45q23 18 45 18h116q27 0 27 -26v-213q0 -60 -28 -90q-35 -40 -79.5 -69.5t-69 -53t-24.5 -58.5v-151q0 -183 145 -213q40 -9 107.5 -9t114.5 18.5t57 26t12.5 12.5t2.5 25v775q0 27 26 26h107 q27 0 26 -26v-881q0 -27 -22 -39q-181 -92 -317 -92t-217 32.5t-125 83.5q-74 84 -74 234v203q0 66 66 121q28 22 59.5 42.5t59.5 49.5q52 54 48 88v16q0 27 -20 27q-22 0 -41 -17l-45 -41q-8 -6 -19 -6q-17 0 -26 11q-10 6 -34.5 29t-72.5 24q-27 0 -22 26z" />
<glyph unicode="&#xe04;" horiz-adv-x="1126" d="M102 27v759q0 30 21 68.5t69 77.5t107 64.5t127.5 38t149.5 12.5t164 -26t146 -72q138 -102 138 -255v-667q0 -27 -27 -27h-108q-27 0 -27 27v637q0 107 -87 178q-83 67 -188 67q-220 0 -304 -96q-19 -19 -19 -53v-180q0 -23 3 -21t17 15q26 24 97 24h149q27 0 31 -25 l14 -79q4 -25 -22 -25h-182q-61 0 -89 -42q-18 -26 -18 -75v-325q0 -27 -26 -27h-109q-27 0 -27 27z" />
<glyph unicode="&#xe05;" horiz-adv-x="1159" d="M115 27v702q0 129 80 213q79 87 256 96q29 0 33.5 -5t13.5 -13l59 -68q18 -18 37 0l61 68q18 18 45 18q178 -9 257 -93.5t79 -215.5v-702q0 -27 -26 -27h-105q-27 0 -26 27v702q-11 126 -154 145q-23 3 -47 -14l-84 -74q-20 -16 -41 0q-2 2 -13.5 12.5t-24.5 23 t-25.5 23.5t-21.5 18q-21 16 -54 10.5t-61.5 -19.5t-46.5 -34q-30 -36 -30 -91v-149q0 -23 3.5 -21t7.5 4q35 35 108 35h148q27 0 30 -27l15 -77q4 -25 -23 -25h-182q-62 0 -89 -42q-18 -28 -18 -75v-325q0 -27 -26 -27h-109q-27 0 -26 27z" />
<glyph unicode="&#xe06;" horiz-adv-x="1089" d="M72 915l12 89q2 10 17.5 18t34 8t34.5 -20l41 -45q18 -18 37 0l43 45q16 20 43 20h119q27 0 26 -26v-205q0 -59 -35.5 -92t-73.5 -58t-64.5 -48t-26.5 -64v-19q0 -74 30.5 -144.5t78.5 -118.5q103 -103 271 -103q61 0 90 19t35 28q33 45 33 137v668q0 27 27 26h108 q25 0 25 -26v-668q0 -92 -22.5 -146.5t-46.5 -89.5t-83 -69.5t-145 -36.5t-147.5 19.5t-108.5 52.5q-87 59 -135 131q-4 4 -7 8t-3 -10v-168q0 -27 -27 -27h-107q-27 0 -26 27v528q0 82 125 155q32 19 60 47q50 50 50 85v22q0 26 -24 24q-23 -2 -37 -18l-45 -39 q-22 -22 -47 7q-4 4 -14.5 11t-22.5 18q-24 22 -70 22q-27 0 -22 26z" />
<glyph unicode="&#xe07;" horiz-adv-x="942" d="M39 952q-8 25 18 33l103 29q25 8 33 -19q68 -229 105.5 -358t60 -204t41 -134t29.5 -97t13 -42q3 -23 40.5 -23t84.5 13.5t85 55.5q85 94 85 326q0 134 -39 232q-14 37 -26 54l-13 18q-51 57 -157 63q-11 2 -17 27l-16 86q-5 26 20 26q202 -2 304 -127q37 -47 69.5 -143 t32.5 -218t-18.5 -214t-64.5 -164q-100 -157 -323 -172h-141q-27 0 -33 25z" />
<glyph unicode="&#xe08;" horiz-adv-x="903" d="M4 918q-21 34 84 66q178 56 320 56q261 0 368 -127q102 -127 102.5 -384t-102 -393t-303.5 -136h-67q-26 0 -35 25v2l-133 417q-10 25 -35 25h-49q-27 0 -23 25l12 77q4 27 31 27h133q27 0 35 -27q12 -31 31.5 -88t40.5 -119q57 -160 65 -186t12.5 -33.5t25 -4.5t52 15.5 t57.5 38.5q93 93 93 336q0 70 -11 144t-43 120t-75 72q-70 41 -180 41q-172 0 -334 -65q-17 -7 -31 14z" />
<glyph unicode="&#xe09;" horiz-adv-x="1048" d="M10 494l13 77q4 27 30 27h172q27 0 27 -27v-241q0 -76 16.5 -109t20.5 -38q34 -42 114 -42t144.5 34t108.5 88q90 110 94 255v26q0 19 -1 32t-3.5 28.5t-3.5 31.5q-10 161 -126 226q-74 41 -184 41q-160 0 -323 -65q-20 -4 -31 14l-43 61q-10 20 6 33q111 56 223.5 75 t173 19t113.5 -8t101 -24q106 -37 157 -99q94 -121 100 -360v-522q0 -27 -24 -27h-115q-27 0 -27 27v145q0 23 -14 2t-43 -53.5t-70 -62.5q-97 -72 -223 -76q-156 6 -228.5 102t-72.5 246v112q0 27 -26 27h-33q-27 0 -23 25z" />
<glyph unicode="&#xe0a;" horiz-adv-x="952" d="M82 344v209q0 59 36 98t71 67t56 50.5t21 50.5v45q0 27 -26 27h-131q-27 0 -23 27l12 88q4 27 31 26h274q25 0 25 -26v-191q0 -66 -36 -104.5t-70 -68.5t-57 -55.5t-23 -58.5v-157q0 -127 72 -181q53 -40 149 -40q146 0 207 47q8 8 8 34v326q0 57 -31 81t-61 37t-21 57 q0 23 15.5 32.5t38 20.5t55.5 41t33 79v101q0 27 26 30l109 19q25 6 24 -21v-96q0 -121 -102 -199q-15 -13 -8 -20q82 -78 82 -195v-399q0 -23 -23 -41q-191 -90 -321.5 -90t-211.5 32.5t-125 83.5q-75 86 -75 234z" />
<glyph unicode="&#xe0b;" horiz-adv-x="956" d="M39 915l12 89q2 10 16.5 18t24.5 8q29 0 45 -20l41 -45q16 -18 35 0l43 47q18 18 45 18h117q27 0 26 -26v-213q0 -60 -28 -90q-33 -37 -77 -68t-68.5 -55.5t-24.5 -59.5v-149q0 -127 72 -181q55 -41 150 -41q143 0 206 48q10 10 10 34v326q0 52 -22 71q-22 20 -76 50 q-26 10 -17 54q0 23 15.5 32.5t36 18.5t55.5 40t35 82v101q0 27 26 30l109 19q25 6 24 -21v-96q0 -121 -102 -199q-15 -13 -8 -20q82 -78 82 -195v-399q0 -23 -23 -41q-191 -90 -321.5 -90t-211.5 32.5t-125 83.5q-75 86 -75 234v203q0 66 66 121q28 22 60 42.5t60 48.5 q50 49 50 89q0 43 -23 43q-17 0 -41 -17l-45 -41q-24 -18 -45 7q-4 4 -14.5 11t-26.5 23q-28 17 -66 17q-27 0 -22 26z" />
<glyph unicode="&#xe0c;" horiz-adv-x="1654" d="M82 27v886q0 27 24 37q179 94 371 94q240 0 367 -116q102 -94 102 -236v-178q0 -156 91 -259q99 -112 243 -112q69 0 104 45q31 45 31 140v676q0 27 27 26h106q25 0 25 -26v-629q0 -117 -15.5 -174.5t-42.5 -97.5t-83 -78.5t-133 -39.5t-131 20.5t-96 52.5 q-70 50 -118 124q-8 8 -8 -10v-145q0 -27 -26 -27h-109q-27 0 -27 27v635q0 128 -100 182q-74 41 -175 41t-167 -19.5t-80 -26.5q-20 -10 -20 -36v-617q0 -27 26 -26h72q25 0 20 -27l-14 -106q-4 -27 -31 -27h-206q-27 0 -27 27z" />
<glyph unicode="&#xe0d;" horiz-adv-x="1660" d="M92 27v886q0 27 25 37q168 86 370 94q242 0 367 -116q102 -95 102 -236v-463q0 -25 9 -34q16 -12 79.5 -31t132 -19t107.5 8.5t72 32.5q74 52 74 183v632q0 27 26 27h107q25 0 24 -27v-663q0 -238 -201 -320q-79 -32 -173 -32q-192 0 -396 92q-23 12 -22 39v545 q0 127 -101 182q-74 41 -174 41t-166.5 -19.5t-81.5 -27.5q-20 -11 -20 -35v-617q0 -27 27 -26h71q27 0 23 -27l-17 -106q-4 -27 -30 -27h-207q-27 0 -27 27zM956 -117q0 6 2.5 18.5t37 3.5t81.5 -22.5t101.5 -13.5t90.5 2t77 13q99 25 159 96q8 8 15.5 8t11.5 -4l47 -47 q16 -16 6 -31q-59 -83 -119 -122q-113 -73 -256 -73q-133 0 -237 37q-8 4 -10 7t-5 7q-2 4 -2 9v112z" />
<glyph unicode="&#xe0e;" horiz-adv-x="1083" d="M16 133q-4 25 23 25h70q27 0 26 26v729q0 27 25 37q168 86 370 94q242 0 367 -116q102 -95 102 -236v-882q0 -129 -145 -222q-19 -11 -52.5 4.5t-79.5 34.5t-99.5 26t-89 10t-77.5 -2q-97 -12 -171 -75q-10 -8 -27 0q-12 15 -24.5 30t-21.5 27.5t11.5 35t57 52t85.5 51.5 q151 67 354 10q52 -15 87 -30q14 -6 22.5 12.5t8.5 59.5v828q0 127 -101 182q-74 41 -174 41t-166.5 -19.5t-80.5 -27.5q-21 -11 -21 -35v-778q0 -25 -27 -25h-205q-27 0 -30 25z" />
<glyph unicode="&#xe0f;" horiz-adv-x="1083" d="M14 133q-4 25 23 25h69q27 0 27 26v729q0 27 25 37q168 86 370 94q242 0 367 -116q102 -95 102 -236v-882q0 -129 -145 -222q-21 -8 -36 -3t-32 15q-68 36 -106.5 60.5t-44.5 26.5t-17 -4q-84 -57 -159.5 -80t-175.5 -23h-31q-27 0 -23 27l13 71q4 10 20 9.5t50 2.5 q91 8 184 66q53 39 77.5 71.5t34.5 32.5q11 1 69 -30.5t84.5 -47t39 -22t25 7t12.5 66.5v828q0 127 -101 182q-74 41 -174 41t-166.5 -19.5t-80.5 -27.5q-21 -11 -21 -35v-778q0 -25 -27 -25h-205q-27 0 -30 25z" />
<glyph unicode="&#xe10;" horiz-adv-x="933" d="M47 784q0 146 135 216q109 55 273 55q156 -6 323 -62q27 -10 19 -32l-19 -91q-5 -25 -39 -12.5t-83 24.5q-124 29 -212 29t-133 -14t-67 -33q-35 -30 -35 -83.5t39 -76t71.5 -28.5t84 -16.5t109.5 -21.5t107 -20q159 -32 204.5 -102t45.5 -154v-116q-2 -39 -10 -80 t-41 -76q-75 -79 -280 -90h-95q-56 0 -75 45l-74 229q-8 27 -35 27h-51q-25 0 -21 28t7.5 45t4.5 26q4 30 31 30h134q24 0 34 -24q21 -61 35.5 -98.5t23.5 -67t17 -53t14.5 -32t22.5 -3.5q111 -2 164 27.5t53 70.5v117q0 72 -70 92q-18 9 -191 41t-199.5 37.5t-67.5 20.5 t-75 44q-79 67 -79 182zM98 -377l15 72q0 8 26 8h6q117 0 222 72q53 35 76.5 68.5t34.5 33.5q12 0 70 -31.5t86 -47t39 -21.5t23.5 7t12.5 66v13q0 26 26 26h109q27 0 26 -26v-37q-5 -135 -145 -221q-21 -8 -47 2h-2l-162 90q-10 10 -25 2q-84 -57 -160.5 -79.5 t-176.5 -22.5h-31q-27 0 -23 26z" />
<glyph unicode="&#xe11;" horiz-adv-x="1097" d="M6 905q0 26 12 86q4 29 36 29t50 -19l41 -45q18 -20 37 -2l43 47q14 19 43 19h113q25 0 25 -27v-69q0 -16 4 -16.5t17 14t36.5 36t56.5 40.5q79 44 155 44t122.5 -18t77 -40.5t46 -41t15.5 -20.5q59 -88 59 -224v-671q0 -27 -26 -27h-107q-27 0 -26 27v671q0 108 -82 164 q-29 21 -74 21q-75 0 -166 -55q-63 -39 -111 -91.5t-77 -132.5t-27 -164v-413q0 -27 -27 -27h-108q-27 0 -27 27v417q0 159 107 301q45 54 45 97q0 10 -2 23.5t-15 13.5q-20 0 -45 -17l-45 -41q-24 -17 -47 6q-4 4 -14 11.5t-23 18.5q-24 22 -69 22q-27 0 -23 26z" />
<glyph unicode="&#xe12;" horiz-adv-x="1716" d="M84 310v427q0 129 80 213q78 86 258 97q29 0 39 -11.5t13 -14.5t7 -8q17 -21 40 -45.5t42 -6.5l62 67q19 19 45 19q178 -9 257 -94t79 -216v-215q0 -147 91 -255q96 -113 244 -113q77 0 103 45q33 49 33 137v668q0 27 24 26h107q27 0 26 -26v-619q0 -166 -34 -231 q-13 -23 -32.5 -52.5t-75.5 -67.5t-132 -40t-130 19.5t-96 52.5q-75 54 -118 127q-10 6 -10 -13v-153q0 -27 -27 -27h-105q-27 0 -26 25v712q-11 127 -154 146q-22 7 -38.5 -7t-30 -26t-27.5 -24.5t-34.5 -30.5t-39.5 0q-20 16 -34 29q-37 34 -50 46q-23 20 -45 13 q-149 -20 -149 -146v-483q0 -76 46 -98q13 -6 38 -6h45q10 0 22 2q27 0 27 -27l2 -100q0 -27 -27 -31q-12 -2 -23 -4t-24 -2h-22q-104 0 -170 69q-52 52 -66 115q-8 31 -8 59l-1 21q-1 22 -1 58z" />
<glyph unicode="&#xe13;" horiz-adv-x="1660" d="M88 27v888q0 27 25 37q165 85 370 95q241 0 367 -117q102 -95 102 -236v-366q0 -94 31 -138q28 -47 104 -47t136.5 31t102.5 83q87 107 95 257v492q0 24 27 24h108q25 0 25 -24v-979q0 -27 -25 -27h-108q-27 0 -27 27v145q0 18 -8 10q-82 -122 -215 -176 q-53 -22 -130 -21t-134 39.5t-77.5 68.5t-32 53.5t-18.5 55.5q-15 67 -15 173v289q0 127 -101 182q-74 41 -174 41t-166.5 -19.5t-81.5 -27.5q-20 -11 -20 -35v-619q0 -27 26 -26h70q27 0 23 -27l-17 -106q-2 -27 -28 -27h-207q-27 0 -27 27z" />
<glyph unicode="&#xe14;" horiz-adv-x="1114" d="M92 229v564q0 25 20.5 65.5t68.5 79.5t108.5 64.5t129 38t148.5 12.5t163 -26t146 -72q138 -102 138 -255v-673q0 -27 -27 -27h-108q-25 0 -25 27v643q0 106 -87 178q-81 67 -210 67q-84 0 -164 -25q-102 -31 -133 -88q-6 -11 -6 -36v-514q0 -73 47 -98q12 -7 37 -7h45 q10 0 23 3q27 0 26 -27l2 -100q0 -27 -26 -31q-12 -2 -23.5 -4t-24.5 -2h-22q-102 0 -172 69q-38 39 -55 92.5t-19 81.5z" />
<glyph unicode="&#xe15;" horiz-adv-x="1126" d="M106 229v506q0 131 78 213q84 87 258 96q25 0 42 -18t29.5 -31.5t32 -34t38.5 -2.5l24 25q23 23 38 41t26.5 19t56.5 -1t111.5 -25.5t109.5 -68.5q78 -82 78 -213v-708q0 -27 -27 -27h-104q-27 0 -27 27v708q-8 92 -78 125q-85 40 -122 6l-86 -73q-21 -21 -39 0 q-4 4 -15.5 14t-23.5 21.5t-23.5 21.5t-22.5 20q-20 18 -42 11q-150 -20 -150 -146v-483q0 -105 84 -105h45q10 0 23 3q23 0 26 -27v-100q2 -10 -6 -19q-15 -18 -46 -18h-42q-106 0 -172 69q-41 41 -56 93.5t-18 80.5z" />
<glyph unicode="&#xe16;" horiz-adv-x="1093" d="M115 27v888q0 27 24 37q165 85 371 95q239 0 366 -117q103 -94 103 -236v-667q0 -27 -27 -27h-108q-27 0 -27 27v637q0 128 -100 182q-74 41 -174 41t-167 -19.5t-81 -27.5q-21 -12 -21 -35v-619q0 -27 27 -26h70q27 0 22 -25l-16 -108q-4 -27 -31 -27h-207q-25 0 -24 27 z" />
<glyph unicode="&#xe17;" horiz-adv-x="1083" d="M111 27v972q0 25 26 25h107q27 0 26 -25v-161q0 -16 3 -12.5t14.5 19.5t46.5 51.5t82 67.5q111 74 226 73t175 -36.5t86 -72.5q0 -2 10.5 -16.5t22.5 -43.5q33 -82 33 -174v-667q0 -27 -25 -27h-108q-27 0 -27 27v667q0 94 -33 137q-6 8 -34.5 28t-102.5 20t-142.5 -28 t-116.5 -76q-100 -100 -108 -247l-1 -22q-1 -23 -1 -58v-421q0 -27 -24 -27h-109q-27 0 -26 27z" />
<glyph unicode="&#xe18;" horiz-adv-x="1034" d="M111 270v154q0 23 26 31l107 18q25 4 24 -22v-140q0 -94 103 -145q53 -27 133.5 -27t130 7.5t86.5 20.5q78 27 78 79v114q0 72 -70 95q-8 0 -115.5 21.5t-171 33.5t-101.5 19t-79 22.5t-74 44.5q-77 66 -77 182q0 144 133 214q111 57 272 57q160 -6 324 -62q24 -9 20 -33 l-18 -90q-6 -23 -31 -16q-160 57 -313 57q-136 0 -190 -47q-36 -31 -36 -84t39 -76.5t79 -29.5t95.5 -16.5t110.5 -22t100 -19.5q153 -27 199.5 -98.5t46.5 -155.5v-114q0 -105 -69 -166q-95 -84 -343 -84q-240 0 -347 114q-44 46 -58 93t-14 71z" />
<glyph unicode="&#xe19;" horiz-adv-x="1114" d="M121 332v672q0 27 26 26h107q27 0 27 -26v-672q0 -90 34 -137q6 -8 34 -26.5t102.5 -18.5t143.5 27.5t117 74.5q99 97 107 248v504q0 27 27 26h108q25 0 25 -26v-977q0 -27 -25 -27h-108q-27 0 -27 27v163q0 16 -3 11.5t-13 -20t-45 -50.5t-83 -67q-114 -74 -227 -73 q-221 2 -294 169q-33 74 -33 172z" />
<glyph unicode="&#xe1a;" horiz-adv-x="1136" d="M143 115v889q0 27 27 26h109q27 0 26 -26v-779q0 -24 16 -33t83 -29t135.5 -20t117 8.5t89.5 32.5q102 57 102 183v634q0 27 24 27h109q27 0 27 -27v-665q0 -140 -102 -236q-126 -116 -367 -116q-188 0 -371 94q-25 10 -25 37z" />
<glyph unicode="&#xe1b;" horiz-adv-x="1132" d="M131 115v889q0 27 27 26h108q27 0 27 -26v-779q0 -24 16 -33t83 -29t135.5 -20t116.5 8.5t90 32.5q102 57 102 183v944q0 26 24 26h109q27 0 26 -26v-975q0 -140 -102 -236q-124 -116 -367 -116q-187 0 -370 94q-25 10 -25 37z" />
<glyph unicode="&#xe1c;" horiz-adv-x="1267" d="M154 248v756q0 27 26 26h207q25 0 29 -26l16 -107q4 -27 -22 -27h-70q-27 0 -27 -26v-578q0 -59 47 -94q25 -18 75 -18t79 26.5t41 68.5t14 91t3 85t28 40l64 8q27 4 26 -22v-37q8 -185 70 -238q26 -22 73 -22t72 18t35 44t10 50v738q0 26 27 26h108q27 0 27 -26v-756 q0 -102 -32 -153q-66 -101 -197 -101q-137 0 -211 86q-19 22 -28 37.5t-12 15.5t-12 -15t-27 -37t-47 -41q-66 -46 -151.5 -46t-130.5 25.5t-70 63.5q-40 63 -40 165z" />
<glyph unicode="&#xe1d;" horiz-adv-x="1257" d="M156 248v756q0 27 26 26h207q25 0 29 -24l16 -109q4 -27 -22 -27h-70q-27 0 -27 -24v-578q0 -61 47 -96q25 -18 75 -18t79 25.5t41 66.5t14 91t3 87t28 41l64 10q25 4 24 -22v-11l2 -28q8 -185 70 -238q26 -22 73.5 -22t72 18t34.5 44t10 52v1045q0 24 27 24h108 q25 0 25 -24v-1065q0 -168 -108 -228q-46 -26 -110 -26t-104 13t-69 33q-54 35 -74 79q-10 14 -13 14t-12 -15t-26.5 -37t-46.5 -41q-68 -46 -154 -46t-131 25.5t-68 63.5q-40 64 -40 165z" />
<glyph unicode="&#xe1e;" horiz-adv-x="1333" d="M127 1004q-4 27 23 26h108q23 0 31 -26l96 -682l2 -50q0 -22 8 -2l15 52l225 442q4 10 16.5 17t22.5 7h6q10 0 22.5 -7t16.5 -17l227 -442l15 -52q2 -10 4 -9t2 11l2 50l98 682q4 27 29 26h108q27 0 23 -26l-133 -979q-4 -25 -29 -25h-88q-25 0 -39 23l-248 471 q-14 20 -24 0l-250 -471q-12 -23 -39 -23h-88q-25 0 -29 25z" />
<glyph unicode="&#xe1f;" horiz-adv-x="1333" d="M127 1006q-4 25 23 24h106q27 0 31 -24l98 -682l2 -52q0 -23 4 -8l10 41q2 8 7 19l227 442q10 23 37 22h8q27 0 39 -22l225 -442l14 -52q4 -10 6.5 -10t2.5 10v52l143 976q4 27 31 27h104q27 0 23 -27l-174 -1273q-4 -27 -29 -27h-88q-31 0 -39 23l-250 471q-10 25 -24 0 l-248 -471q-14 -23 -39 -23h-88q-26 0 -31 25z" />
<glyph unicode="&#xe20;" horiz-adv-x="1087" d="M14 133q-4 27 23 27h69q27 0 27 26v729q0 27 25 37q170 87 370 95q241 0 367 -117q102 -95 102 -236v-667q0 -27 -24 -27h-111q-26 0 -26 27v637q0 127 -101 182q-74 41 -174 41t-166.5 -19.5t-80.5 -27.5q-21 -11 -21 -35v-778q0 -27 -27 -27h-205q-27 0 -30 27z" />
<glyph unicode="&#xe21;" horiz-adv-x="1089" d="M127 27v977q0 26 27 26h108q27 0 27 -26v-500q8 -151 107 -248q104 -102 272 -102q90 0 125 46t34 138v666q0 27 27 26h107q27 0 26 -26v-666q0 -133 -65 -234q-29 -37 -88.5 -72.5t-144.5 -36.5t-147.5 20.5t-109.5 52.5q-89 60 -135 129q-4 4 -7 9t-3 -11v-168 q0 -27 -25 -27h-108q-27 0 -27 27z" />
<glyph unicode="&#xe22;" horiz-adv-x="1052" d="M106 339q0 75 35 128t53.5 70.5t18.5 21.5t-17.5 23t-48 69.5t-30.5 124.5q0 138 114 215q57 39 125 47.5t98.5 -1t41 -14.5t9.5 -28t-1 -38v-37q0 -20 -10.5 -22.5t-16.5 -2.5q-86 6 -148.5 -29t-68.5 -93t19.5 -91t62.5 -50q59 -26 137 -26q16 0 15 -16 q0 -11 -8.5 -54.5t-14.5 -45t-10 -1.5q-84 8 -145.5 -25.5t-61.5 -121.5q0 -72 62 -128q67 -62 192 -62q147 0 246 22q8 2 17 7t9 26v797q0 27 27 26h108q27 0 27 -26v-910q0 -25 -27 -37q-173 -65 -409 -65q-180 0 -291 94q-53 45 -81 111.5t-28 141.5z" />
<glyph unicode="&#xe23;" horiz-adv-x="847" d="M78 772v10q4 137 126 207q96 55 261 55q133 0 280 -63q14 -6 9 -33l-19 -88q-4 -23 -27 -12q-95 47 -221 53q-102 0 -147 -15q-100 -32 -100 -100.5t57 -103.5t161.5 -70t168 -70.5t101.5 -76.5q69 -74 69 -184q0 -106 -87 -191q-106 -104 -296 -104q-136 0 -264 59 q-31 14 -51 26.5t-15 37.5l18 100q4 22 31 8t95.5 -46t182 -32t169 40t55.5 102.5t-48 103.5t-121 63.5t-129 43t-115 57.5q-144 91 -144 223z" />
<glyph unicode="&#xe24;" horiz-adv-x="1077" d="M113 27v888q0 27 24 37q165 85 371 95q239 0 366 -117q103 -94 103 -236v-1075q0 -27 -27 -27h-108q-27 0 -27 27v1045q0 128 -100 182q-74 41 -174 41t-167 -19.5t-81 -27.5q-21 -12 -21 -35v-619q0 -27 27 -26h70q27 0 22 -25l-16 -108q-4 -27 -31 -27h-207 q-25 0 -24 27z" />
<glyph unicode="&#xe25;" horiz-adv-x="1007" d="M53 227v80q0 129 102.5 212t282.5 83h279q27 0 26 27v106q0 60 -31 91q-66 69 -231 69q-143 0 -276 -61q-24 -10 -35 12l-49 74q-6 8 -6 18t13 17t47 22.5t81 30.5q108 36 199.5 36t149 -7t109.5 -27q118 -47 163 -146q29 -61 28 -129v-708q0 -27 -26 -27h-109 q-27 0 -27 27v419q0 27 -26 27h-266q-111 0 -174.5 -38t-63.5 -105v-47l2 -54q0 -35 21.5 -60.5t62.5 -25.5h43q10 0 23 2q27 0 26 -24l2 -101q0 -25 -22 -27.5t-32.5 -4.5t-19.5 -2h-20q-109 0 -172 67q-74 74 -74 174z" />
<glyph unicode="&#xe26;" horiz-adv-x="1083" d="M14 133q-4 27 23 27h69q27 0 27 26v729q0 27 25 37q170 87 370 95q241 0 367 -117q102 -95 102 -236v-1075q0 -27 -24 -27h-111q-26 0 -26 27v1045q0 127 -101 182q-74 41 -174 41t-166.5 -19.5t-80.5 -27.5q-21 -11 -21 -35v-778q0 -27 -27 -27h-205q-27 0 -30 27z" />
<glyph unicode="&#xe27;" horiz-adv-x="837" d="M12 924q-14 20 8 37q74 49 180.5 69.5t186.5 20.5q408 0 408 -523q0 -262 -103.5 -400t-304.5 -138q-79 0 -199 24q-10 2 -16 12.5t-2 20.5l23 76q6 20 26 20q78 -16 156 -16t130 35t79 92q49 101 49 274q0 171 -36 243.5t-88 107t-129 34.5q-168 0 -286 -61 q-27 -12 -41 10z" />
<glyph unicode="&#xe28;" horiz-adv-x="1157" d="M96 27v759q0 27 21 67t68.5 79t108.5 64q119 51 233 51q192 0 323 -78q44 -29 147 28q20 12 32.5 22.5t22 13.5t23.5 -9l63.5 -63.5t17.5 -34.5t-30 -25q-41 -35 -145 -53q-8 0 -4 -6q41 -70 41 -148v-667q0 -27 -27 -27h-108q-25 0 -25 27v637q0 107 -87 178 q-83 67 -189 67q-253 0 -318 -115q-6 -10 -6 -34v-180q0 -23 3 -21t7 4q35 35 107 35h149q27 0 31 -27l14 -77q4 -25 -22 -25h-182q-61 0 -89 -42q-18 -26 -18 -75v-325q0 -27 -27 -27h-108q-27 0 -27 27z" />
<glyph unicode="&#xe29;" horiz-adv-x="1146" d="M127 115v889q0 27 27 26h106q27 0 27 -26v-779q0 -26 16 -32q18 -10 84 -30t134.5 -20t116.5 8.5t91 32.5q100 54 100 183v94q0 18 -16 18h-156q-27 0 -22 25l14 78q4 25 31 24h133q16 0 16 19v379q0 27 27 26h109q25 0 24 -26v-383q2 -14 19 -15h86q27 0 22 -24l-14 -78 q-4 -25 -31 -25h-63q-16 0 -19 -14v-129q0 -140 -103 -236q-125 -116 -364 -116h-14q-161 5 -356 94q-4 0 -5 2q-20 10 -20 35z" />
<glyph unicode="&#xe2a;" horiz-adv-x="1128" d="M53 227v78q0 133 102.5 215t282.5 82h281q25 0 24 27v106q0 60 -31 91q-66 69 -231 69q-143 0 -276 -61q-26 -10 -35 12l-49 72q-6 8 -6 18t13 17t47 22.5t82 30.5q116 38 219 38q201 0 298 -63q20 -20 54 -9q64 21 89 41.5t34.5 24.5t23.5 -10l74 -74q16 -16 7 -23 q-33 -26 -66 -42q-54 -27 -103 -35q-2 0 -1 -5t10 -39t9 -75v-710q0 -25 -26 -25h-109q-27 0 -27 25v421q0 27 -24 27h-268q-111 0 -174.5 -39t-63.5 -106v-45l2 -54q0 -35 22.5 -60.5t61.5 -25.5h43q10 0 23 2q27 0 26 -24l2 -101q0 -25 -22 -27.5t-32.5 -4.5t-19.5 -2h-20 q-109 0 -172 67q-39 39 -55.5 92.5t-18.5 81.5z" />
<glyph unicode="&#xe2b;" horiz-adv-x="1075" d="M135 25v979q0 27 27 26h108q25 0 25 -26v-279q0 -27 36 -24t80 11q104 21 175 70q143 98 168 236q2 12 28 12h111q18 0 20 -9q6 -26 -16 -93q-59 -147 -205 -242q-10 -8 -14 -15t2 -24l289 -624q10 -23 -17 -23h-121q-27 0 -36 23l-260 557q-11 23 -29 18 q-85 -23 -189 -31q-22 0 -22 -28v-514q0 -25 -25 -25h-108q-27 0 -27 25z" />
<glyph unicode="&#xe2c;" horiz-adv-x="1353" d="M129 1004q-4 27 23 26h108q27 0 31 -26l98 -680v-52q0 -10 2 -10t6 10l13 52l227 442q9 22 39 22h6q27 0 39 -22l227 -442l15 -52q6 -23 6 0l2 52q21 161 38 271t22 145q11 79 11 83q11 58 -75 111q-43 22 -39 53q2 10 2 17.5t3 15.5q4 10 16 16q26 12 52 27 q66 37 70 129v78q0 27 14 29.5t32 6t35 6.5t30.5 6t24.5 5t17.5 -5t6.5 -34v-65q0 -135 -103 -213q-4 -4 -9 -9.5t3 -13.5q92 -87 80 -186q0 -2 -5 -37t-12 -90q-10 -78 -34.5 -254t-52.5 -389q-4 -27 -31 -27h-88q-25 0 -39 23l-248 473q-6 12 -13 10t-11 -14l-250 -469 q-12 -23 -39 -23h-88q-10 0 -17.5 35t-18.5 95t-27 172q-53 357 -99 702z" />
<glyph unicode="&#xe2d;" horiz-adv-x="987" d="M70 78v502q0 27 26 26h230q27 0 30 -26l13 -76q4 -27 -23 -27h-94q-25 0 -25 -26v-269q0 -18 7 -24q37 -29 161 -29q172 0 268.5 101.5t96.5 283.5q0 199 -124 307q-101 88 -253 88q-89 0 -154 -18t-100 -33q-25 -6 -27 16q-4 14 -9 50.5t-8 54.5q-5 27 13 27 q135 41 258 41h13q250 0 403 -151q154 -152 154 -398q0 -232 -138 -372q-135 -136 -374 -136q-172 0 -320 53q-4 2 -14 8t-10 27z" />
<glyph unicode="&#xe2e;" horiz-adv-x="1021" d="M80 74v504q0 25 26 24h230q25 0 31 -24l10 -78q4 -27 -23 -27h-92q-27 0 -26 -27v-270q0 -26 26 -31q89 -20 141 -20q174 0 269.5 102.5t95.5 282.5q0 198 -123 307q-99 88 -252 88q-98 0 -160.5 -17t-90.5 -28.5t-30 6.5q-10 71 -16 99q-8 36 10 36q131 43 245 43 q197 0 323 -71q30 -15 55 -9q57 16 82 30q44 27 52 35q19 19 40 -1q10 -8 34 -33t40 -40t7 -23q-28 -25 -70 -45t-91 -31q-8 0 -2 -8q115 -146 115 -352q0 -236 -138 -374q-136 -136 -374 -136q-174 0 -322 53q-4 2 -13 8t-9 27z" />
<glyph unicode="&#xe2f;" horiz-adv-x="1112" d="M133 731v78q22 161 149 203q88 29 167 26q10 -2 18 -10t6 -18v-84q-4 -27 -29 -27h-22q-23 0 -47.5 -4t-41 -18.5t-25.5 -30.5q-17 -29 -17 -53l4 -84q12 -141 233 -142q54 -3 108 11t72 23q35 18 35 52l5 353q0 25 26 24h107q27 0 26 -24v-983q2 -144 -106 -230 q-102 -82 -301 -82q-93 0 -146 29q-16 8 -6 29l37 84q10 13 27.5 10.5t33.5 -2.5h48q162 0 222 65q32 35 32 97v417q0 25 -21 25q-128 -31 -208 -31q-179 0 -282 82t-104 215z" />
<glyph unicode="&#xe30;" horiz-adv-x="579" d="M74 152v151q0 27 26 31l72 14q27 4 27 -22v-29q0 -25 26 -25h226q27 0 22 -26l-18 -94q-4 -27 -31 -27h-324q-27 0 -26 27zM74 702v154q0 27 26 31l72 12q27 4 27 -20v-29q0 -27 26 -27h226q27 0 22 -24l-18 -97q-4 -25 -31 -24h-324q-27 0 -26 24z" />
<glyph unicode="&#xe31;" d="M-508 1212v140q0 23 27 28l71 11q10 4 18.5 -2.5t8.5 -16.5v-24q0 -25 27 -25h467q27 0 22 -25l-16 -86q-6 -25 -31 -24h-567q-10 0 -18.5 7t-8.5 17z" />
<glyph unicode="&#xe32;" horiz-adv-x="815" d="M27 924q-16 18 6 34q156 80 349 80q95 0 170 -32.5t116 -83.5q71 -87 71 -226v-669q0 -27 -26 -27h-101q-27 0 -26 27v688q0 111 -89 157q-54 27 -136 30q-113 4 -191 -21q-37 -10 -56 -21q-32 -19 -48 2z" />
<glyph unicode="&#xe33;" horiz-adv-x="780" d="M-408 1306q0 71 49 120t121 49t121 -49.5t49 -120t-49 -119.5t-121 -49t-121 49t-49 120zM-305 1307q0 -29 19 -49.5t48 -20.5t48.5 20.5t19.5 49.5t-19.5 48t-48.5 19t-48 -19.5t-19 -47.5zM6 922q-15 20 6 36q156 80 350 80q95 0 169.5 -32.5t115.5 -83.5 q72 -91 72 -226v-671q0 -25 -27 -25h-100q-27 0 -27 25v688q0 113 -89 159q-61 31 -175 31q-75 3 -131.5 -14.5t-75.5 -28.5q-35 -21 -49 2z" />
<glyph unicode="&#xe34;" d="M-872 1214l16 93q4 27 31 26h682q27 0 22 -26l-16 -93q-4 -27 -31 -26h-682q-27 0 -22 26z" />
<glyph unicode="&#xe35;" d="M-881 1212l17 97q4 25 30 24h529q27 0 26 27v84q0 27 27 26h105q27 0 26 -26v-230q0 -27 -26 -26h-713q-27 0 -21 24z" />
<glyph unicode="&#xe36;" d="M-991 1214l16 93q4 27 31 26h457q14 0 15 5t0 9.5t-1 10.5q0 72 50 121t121 49t120 -49t49 -121q0 -66 -49 -118q-51 -52 -121 -52h-666q-27 0 -22 26zM-371 1358q0 -29 19.5 -48.5t48.5 -19.5t48 19.5t19 48.5t-19 48t-48 19t-48.5 -19.5t-19.5 -47.5z" />
<glyph unicode="&#xe37;" d="M-895 1214l16 93q4 27 31 26h395q27 0 27 27v82q0 27 27 26h73q27 0 27 -26v-82q0 -27 27 -27h26q27 0 27 27v82q0 27 24 26h107q27 0 27 -26v-230q0 -25 -27 -24h-786q-10 0 -17.5 8t-3.5 18z" />
<glyph unicode="&#xe38;" d="M-381 -260l14 82q4 25 31 24h211q27 0 27 -24v-354q0 -27 -27 -27h-104q-27 0 -27 27v221q0 27 -27 26h-77q-25 0 -21 25z" />
<glyph unicode="&#xe39;" d="M-707 -260l15 80q4 27 30 26h189q27 0 27 -26v-176q4 -37 28.5 -61.5t69.5 -24.5q102 0 102 106v156q0 27 27 26h84q27 0 26 -26v-156q0 -100 -59 -158.5t-167.5 -58.5t-172 51t-67.5 156v35q0 25 -27 24h-82q-27 0 -23 27z" />
<glyph unicode="&#xe3a;" d="M-352 -324q0 55 42 96.5t99 41.5t98 -41.5t41 -96.5t-41 -95t-98 -40t-99 40t-42 95z" />
<glyph unicode="&#xe3f;" horiz-adv-x="1105" d="M143 41v1100q0 29 4.5 43t28.5 14h221v127q0 29 7.5 38t37.5 9h121q23 0 26 -10t3 -39v-129q166 -14 254 -83t88 -200t-53.5 -202.5t-135.5 -100.5q99 -32 147 -92q60 -75 60 -209.5t-84 -215.5t-276 -91v-123q0 -29 -3 -39t-26 -10h-121q-31 0 -38 10t-7 37v123h-219 q-23 0 -29 10t-6 33zM332 715q0 -16 6 -23.5t27 -7.5h133q129 0 185 44t56 146t-62.5 144.5t-184.5 42.5h-130q-30 -3 -30 -31v-315zM336 168q0 -31 29 -31h129q131 0 197.5 40t66.5 149q0 204 -256 204h-133q-20 0 -26.5 -7t-6.5 -23v-332z" />
<glyph unicode="&#xe40;" horiz-adv-x="411" d="M121 25v979q0 27 26 26h109q25 0 25 -26v-979q0 -25 -25 -25h-109q-27 0 -26 25z" />
<glyph unicode="&#xe41;" horiz-adv-x="753" d="M127 25v979q0 27 25 26h108q27 0 27 -26v-979q0 -25 -27 -25h-108q-25 0 -25 25zM485 25v979q0 27 27 26h106q27 0 27 -26v-979q0 -25 -27 -25h-106q-27 0 -27 25z" />
<glyph unicode="&#xe42;" horiz-adv-x="454" d="M-72 1442q0 97 66 150q56 46 135 46h367q27 0 22 -26l-12 -80q-4 -27 -31 -27h-360q-54 0 -54 -63q0 -35 20.5 -57.5t47 -35t53.5 -28.5t54 -53q71 -95 71 -258v-983q0 -27 -26 -27h-109q-25 0 -25 27v1032q0 132 -85 174q-134 65 -134 209z" />
<glyph unicode="&#xe43;" horiz-adv-x="475" d="M-82 1545q-6 38 21 48q106 36 218.5 44.5t163 -6.5t73 -26.5t48.5 -34.5q64 -56 64 -134.5t-26 -123.5q-37 -64 -107 -100q-86 -42 -86 -174v-1011q0 -27 -25 -27h-108q-27 0 -27 27v964q0 161 71 256q42 57 88 75.5t66.5 41t20.5 50t-7.5 44.5t-31.5 30q-54 30 -189 30 q-79 0 -186 -39q-27 -11 -31 18q-5 21 -10 48z" />
<glyph unicode="&#xe44;" horiz-adv-x="466" d="M-66 1530l15 82q4 27 31 26h512q27 0 26 -26v-82q0 -119 -98 -187q-12 -10 -32.5 -20t-39.5 -31q-45 -50 -45 -141v-1124q0 -27 -24 -27h-107q-27 0 -27 27v1077q0 161 59 242q25 34 52 49.5t51.5 30.5t46.5 24q31 14 31 45q0 10 -14 10h-414q-10 -2 -17.5 6.5t-5.5 18.5 z" />
<glyph unicode="&#xe45;" horiz-adv-x="780" d="M4 926q-10 21 8 37q154 79 348 79q95 0 169.5 -32.5t116.5 -83.5q73 -90 73 -226v-1073q0 -27 -27 -26h-102q-25 0 -25 26v1090q0 113 -90 159q-63 31 -176 31q-72 4 -129 -16t-83 -32.5t-42 7.5z" />
<glyph unicode="&#xe46;" horiz-adv-x="1052" d="M117 735q0 144 71 221q78 90 209 97q24 0 40.5 -20.5t30 -35t19.5 -22.5q23 -29 45 0q6 8 19.5 22.5t28.5 30.5q22 25 47 25q131 -7 205 -93t73 -217v-1126q0 -27 -26 -27h-93q-27 0 -26 27v1126q0 63 -14 87q-27 48 -99 59q-18 2 -29.5 -6.5t-25.5 -21.5t-30.5 -28.5 t-29.5 -25.5t-22.5 -11t-23 11t-29 27.5t-29.5 27.5t-23.5 21.5t-41 4.5t-53 -21.5t-32.5 -38.5q-14 -29 -14 -92.5t30 -90.5t42 -30t22.5 -8t7.5 -21t-5.5 -35t-4.5 -29q-4 -29 -28 -28q-87 8 -150 80q-61 70 -61 161z" />
<glyph unicode="&#xe47;" d="M-858 1372.5q0 61.5 54 116.5t175 55h391q28 0 14 -60q-5 -22 -9 -44q-6 -14 -25 -19h-401q-64 0 -64 -57q0 -25 10.5 -45.5t50.5 -20.5h60q60 0 92 37q26 26 47 21l201 -47q24 -10 24 -33v-74q0 -25 -24 -18q-68 18 -117 32.5t-67 19.5t-28 -2l-26 -17q-47 -41 -121 -41 h-57q-112 0 -162 100q-18 35 -18 96.5z" />
<glyph unicode="&#xe48;" d="M-281 1583v225q0 27 27 27h107q27 0 26 -27v-225q0 -27 -26 -27h-107q-27 0 -27 27z" />
<glyph unicode="&#xe49;" d="M-635 1710l25 88q6 23 28 23h152q10 0 17 -7.5t7 -17.5v-82q0 -23 25 -22h289q10 0 16 -7.5t4 -17.5l-14 -88q-8 -23 -29 -23h-381q-24 0 -24 23v84q0 10 -7.5 17.5t-17.5 7.5h-71q-10 0 -16.5 6t-2.5 16z" />
<glyph unicode="&#xe4a;" d="M-698 1610q0 70 45 112q43 45 118 52q20 2 33 -14.5t29 -41.5q14 -14 30.5 5.5t29 35t30.5 15.5q120 -8 161 -80q11 -19 15 -36t14 -3q13 39 13 65l-2 45q-2 8 -2 15q-6 22 16 22q33 6 50 10q22 6 42.5 9.5t20.5 -19.5v-20q0 -117 -70 -174q-75 -52 -143 -52h-21 q-23 4 -24 23v16q0 23 -11.5 51.5t-58.5 36.5q-22 6 -61 -38q-4 -6 -13.5 -6.5t-20.5 11t-25.5 25t-39.5 7.5q-38 -8 -43 -62v-43q0 -20 -22 -21h-66q-23 0 -22 23z" />
<glyph unicode="&#xe4b;" d="M-389 1698v51q0 27 27 27h65q27 0 27 26v58q0 27 26 26h97q27 0 26 -26v-58q0 -27 27 -26h65q27 0 27 -27v-51q0 -27 -27 -27h-65q-27 0 -27 -26v-62q0 -27 -26 -27h-97q-27 0 -26 27v62q0 27 -27 26h-65q-27 0 -27 27z" />
<glyph unicode="&#xe4c;" d="M-479 1550v133q0 27 26 27h365q10 0 17 -7t3 -17l-18 -78q-4 -27 -31 -27h-219q-18 0 -18 -18v-35q0 -27 -27 -23l-72 15q-27 4 -26 30z" />
<glyph unicode="&#xe4d;" d="M-432 1315q0 75 56 135q54 57 136 57q124 0 178 -119q15 -34 15 -74t-15.5 -75t-41.5 -61q-56 -56 -136 -56q-79 0 -135.5 56.5t-56.5 136.5zM-317 1314q0 -32 22.5 -54.5t54.5 -22.5q33 0 55.5 22.5t22.5 54.5t-22.5 54.5t-55.5 22.5t-55 -22.5t-22 -54.5z" />
<glyph unicode="&#xe4e;" />
<glyph unicode="&#xe4f;" horiz-adv-x="1064" d="M207 410q0 135 98 233t234 98q135 0 233 -98t98 -234q0 -69 -26.5 -129.5t-71.5 -105.5q-98 -98 -233 -98q-136 0 -234 98t-98 236zM258 410q0 -120 82 -200q85 -83 199 -83q113 0 198 83q82 80 82 199q0 58 -21.5 109t-60.5 89q-85 83 -198 83q-114 0 -199 -83 q-82 -80 -82 -197zM346 408q0 78 56 136q54 56 135 56t137.5 -56.5t56.5 -134.5q0 -40 -15.5 -76t-41.5 -61q-59 -57 -135 -57q-80 0 -137 57q-56 56 -56 136z" />
<glyph unicode="&#xe50;" horiz-adv-x="1060" d="M135 346v107q0 158 110 255t280 97q83 0 156 -20.5t130 -63.5q129 -97 129 -268v-107q0 -160 -104.5 -256t-303.5 -96q-177 0 -287 97t-110 255zM295 377q0 -111 57 -178.5t173 -67.5t184.5 61.5t68.5 184.5v45q0 111 -52 178.5t-184.5 67.5t-189.5 -68t-57 -178v-45z " />
<glyph unicode="&#xe51;" horiz-adv-x="1114" d="M135 268v289q91 234 414 234q177 0 296 -79q116 -77 116 -182v-348q0 -213 -207 -306q-76 -34 -189 -42q-23 -8 -29 19q-9 44 -14.5 73t7 33t32 4t64.5 9.5t85 33.5q93 54 93 178l-2 322q0 66 -64.5 107.5t-187.5 41.5q-194 0 -254 -125v-264q0 -39 20.5 -71.5 t65.5 -32.5h68q10 2 18 -6.5t8 -18.5l2 -100q0 -27 -26 -31q-20 -2 -30.5 -4t-19.5 -2h-20q-107 0 -177 79q-69 78 -69 189z" />
<glyph unicode="&#xe52;" horiz-adv-x="1234" d="M143 246v700q0 27 25 31l106 18q25 6 25 -20v-729q0 -45 25.5 -65.5t85.5 -20.5h424q41 0 73.5 19.5t34.5 66.5v250q0 8 -1 21t-4 32.5t-15 34.5q-27 38 -91 45q-18 0 -30 -8.5t-21 -12.5l-80 -69q-18 -14 -38 2l-74 65q-29 22 -53 23q-35 -6 -48.5 -13.5t-28 -11.5 t-26.5 16q-31 49 -42 69.5t-4 34t26 26.5q51 35 149 41q10 0 19 -5q17 -9 32 -20l54 -59q18 -18 34 0l58 59q24 24 51 25q76 -4 123 -27t88 -68q78 -82 78 -213v-237q0 -109 -68 -172q-52 -52 -115 -66q-31 -8 -59 -8h-471q-99 0 -170 72q-72 74 -72 174z" />
<glyph unicode="&#xe53;" horiz-adv-x="1198" d="M164 252v233q0 131 78 213q86 90 231 97q10 0 18.5 -5.5t16.5 -10.5t15 -12t14.5 -15t14.5 -16.5t21 -23.5t20.5 -15.5t20.5 15t23.5 23.5t16.5 16.5t14 16.5q8 6 16 11t16.5 10.5t52.5 3.5t100 -26t99 -69q78 -82 78 -213v-458q0 -27 -26 -27h-107q-25 0 -25 27v458 q0 92 -56 125q-78 46 -124 0q-47 -42 -67 -59.5t-30.5 -18t-24 13t-33 30t-39.5 34.5q-29 28 -49 21q-114 -15 -121 -99q-2 -24 -2 -47v-235q0 -107 84 -107h45q10 0 22 2q27 0 27 -24l2 -103q0 -25 -27 -28q-12 -2 -23 -4t-24 -2h-22q-105 0 -172 67q-74 79 -74 201z" />
<glyph unicode="&#xe54;" horiz-adv-x="1142" d="M131 383q0 180 93 294q95 116 253 116h268q90 0 106 11q28 18 28 97v55q0 14 26 23l109 18q27 4 26 -22v-94q0 -108 -74 -173q-67 -59 -159 -63h-299q-111 0 -176.5 -69.5t-65.5 -180t33 -177t92 -66.5h117q20 0 61 20q25 19 25 66.5t20.5 94t53.5 79.5q58 60 161 94 q25 6 31 -19q4 -16 7 -39.5t7 -39.5t-6 -21.5t-16 -9.5q-107 -35 -107 -127q0 -20 2.5 -36.5t16.5 -22t49 -11.5q107 -18 180 -35q25 -4 25 -30l-8 -86q-4 -27 -29 -21l-123 25q-47 10 -88 17t-53 10q-13 3 -44.5 -14t-58 -26.5t-48.5 -13.5q-34 -6 -60 -6h-141 q-102 0 -169 116q-65 115 -65 267z" />
<glyph unicode="&#xe55;" horiz-adv-x="1153" d="M141 391q0 162 83 273.5t227 126.5q-19 38 -19 90.5t48 100.5t117 48t117 -48t48 -101.5t-19 -87.5h13q91 0 108 11t22 32.5t5 64.5v55q0 14 27 23l108 18q27 4 27 -22v-94q0 -108 -75 -173q-67 -59 -159 -63h-301q-111 0 -175 -69.5t-64 -180t32.5 -177t91.5 -66.5h117 q26 0 48 12t30 23.5t8 54t20.5 90t53.5 80.5q59 60 162 94q24 8 30 -19q4 -16 7.5 -39.5t6.5 -39.5t-6.5 -21.5t-15.5 -9.5q-106 -39 -106 -129v-27q0 -27 26 -33q6 -2 41 -8q106 -18 181 -35q27 -4 22 -30l-8 -86q0 -10 -8 -17.5t-47.5 1.5t-90.5 19.5t-93 17.5t-54 10 q-18 4 -59 -22q-60 -38 -152 -38h-139q-99 0 -169 116q-67 113 -67 275zM530 858q0 -29 19.5 -47t47.5 -18t46.5 18t18.5 47t-18.5 47.5t-46.5 18.5t-47.5 -18.5t-19.5 -47.5z" />
<glyph unicode="&#xe56;" horiz-adv-x="1134" d="M121 881v94q0 27 26 22l109 -18q23 -6 27 -27v-55q0 -78 20.5 -90t46 -13t66.5 -1h268q150 0 247 -103q99 -105 99 -282q0 -179 -93 -294q-92 -114 -253 -114h-176q-127 0 -199 72t-71 174v17q0 13 1 28.5t4 39.5t27 27l105 19q27 4 26 -21q-2 -31 -2 -53v-70 q0 -66 59 -78q23 -5 40 -8h155q111 0 175.5 64.5t64.5 200.5q0 186 -144 222q-44 11 -96 11h-299q-92 4 -158 63q-75 65 -75 173z" />
<glyph unicode="&#xe57;" horiz-adv-x="1464" d="M137 250v233q0 131 78 213q84 88 231 97q10 0 17.5 -5.5t15.5 -9.5l17 -12q20 -26 47 -51q18 -20 24 -20.5t20.5 15t21.5 23.5t16 17q16 16 28 24q29 19 39 19q151 -8 230.5 -93.5t78.5 -216.5v-344q0 -18 19 -18q57 0 89 39t32 96v692q0 23 26 31l109 18q27 4 27 -22 v-701q0 -118 -68 -194q-71 -80 -197 -80h-168q-27 0 -26 27l2 456q-6 66 -19 89q-29 46 -110 57q-24 8 -46.5 -14.5t-44.5 -40t-35 -30.5t-23.5 -13.5t-23.5 13.5q-34 35 -64 58q-41 33 -72 27t-55.5 -20.5t-36.5 -34.5q-19 -31 -19 -91v-235q0 -39 19.5 -73t66.5 -34h43 q10 0 21.5 2t19.5 -6t8 -18l2 -103q0 -25 -24 -28q-12 -2 -23.5 -4t-23.5 -2h-23q-109 0 -177 78q-69 78 -69 190z" />
<glyph unicode="&#xe58;" horiz-adv-x="1140" d="M145 395q0 55 17 130q35 160 155 231q76 47 175 47h268q91 0 108 11t22 32.5t5 64.5v56q0 16 27 20l108 21q27 4 27 -23v-94q0 -107 -75 -173q-67 -59 -159 -63h-301q-145 0 -205 -110q-35 -63 -34.5 -144.5t13.5 -127.5t36 -73q38 -45 112 -50q25 -2 48.5 17t45 38.5 t31.5 27.5q27 23 54 -2q8 -8 28.5 -25.5t33.5 -30.5q48 -48 124 -5q45 25 52 76q3 22 3 45l-10 65q0 13 14 24q78 62 90.5 54t22.5 -32q20 -46 20 -107q0 -198 -167 -277q-50 -24 -89.5 -28t-48.5 1q-18 11 -28 21l-19 19q-16 16 -35.5 38.5t-44.5 -6.5q-8 -8 -15 -16 t-15 -16l-19 -19q-28 -28 -51 -24q-148 8 -231 94q-29 31 -61 111.5t-32 201.5z" />
<glyph unicode="&#xe59;" horiz-adv-x="1144" d="M135 252v231q0 131 78 213q81 85 285 97q20 0 39 -27l24 -49q12 -23 20.5 -16.5t22.5 18.5t44 29q68 40 159 40h63q56 0 73 42q9 22 9 67v55q4 20 27 27l108 18q27 4 27 -22v-96q0 -108 -74 -173q-71 -63 -159 -63h-64q-99 0 -151 -70q-17 -26 -4 -53q4 -13 34 -70 q33 -65 91.5 -180.5t123.5 -244.5q10 -25 -14 -25h-102q-25 0 -39 25q-80 156 -126.5 244.5t-72 140t-47.5 93.5q-42 84 -52 101q-13 25 -38 25q-111 -15 -122 -99q-3 -24 -3 -47v-235q0 -57 31 -86q13 -19 55 -19h35q12 0 30 2q27 0 27 -26l2 -101q0 -27 -24 -30l-33 -4 q-12 -2 -22 -2h-15q-106 0 -172 69q-44 41 -65 121q-9 37 -9 80z" />
<glyph unicode="&#xe5b;" horiz-adv-x="1699" />
<glyph unicode="&#x2000;" horiz-adv-x="959" />
<glyph unicode="&#x2001;" horiz-adv-x="1919" />
<glyph unicode="&#x2002;" horiz-adv-x="959" />
<glyph unicode="&#x2003;" horiz-adv-x="1919" />
<glyph unicode="&#x2004;" horiz-adv-x="639" />
<glyph unicode="&#x2005;" horiz-adv-x="479" />
<glyph unicode="&#x2006;" horiz-adv-x="319" />
<glyph unicode="&#x2007;" horiz-adv-x="319" />
<glyph unicode="&#x2008;" horiz-adv-x="239" />
<glyph unicode="&#x2009;" horiz-adv-x="383" />
<glyph unicode="&#x200a;" horiz-adv-x="106" />
<glyph unicode="&#x2013;" horiz-adv-x="968" d="M0 465v80q0 31 10 35t39 4h860q31 0 45.5 -4.5t14.5 -26.5v-82q0 -25 -11.5 -33t-48.5 -8h-866q-25 0 -34 7t-9 28z" />
<glyph unicode="&#x2014;" horiz-adv-x="1574" d="M0 465v80q0 29 10 34t39 5h1462q33 0 48.5 -4.5t15.5 -28.5v-80q0 -27 -12.5 -34t-51.5 -7h-1466q-45 0 -45 35z" />
<glyph unicode="&#x2018;" horiz-adv-x="409" d="M76 958q23 98 80 178.5t129 129.5q17 14 34 2q29 -19 21 -35q-62 -126 -72 -270q-2 -39 -30 -39h-125q-29 0 -35 9t-2 25z" />
<glyph unicode="&#x2019;" horiz-adv-x="409" d="M74 961q61 124 71 270q2 39 31 39h125q29 0 35 -9.5t2 -25.5q-23 -98 -80 -178t-129 -129q-19 -15 -35 -5q-28 19 -20 38z" />
<glyph unicode="&#x201a;" horiz-adv-x="411" d="M59 -145q62 126 72 270q2 18 8 28.5t25 10.5h123q29 0 35 -10.5t2 -26.5q-23 -98 -80.5 -177t-128.5 -128q-19 -15 -35 -4q-29 18 -21 37z" />
<glyph unicode="&#x201c;" horiz-adv-x="718" d="M70 958q23 98 80 178.5t129 129.5q17 14 34 2q29 -19 19 -42.5t-22.5 -58t-23.5 -71.5q-19 -69 -22.5 -111t-9.5 -52.5t-23 -10.5h-125q-29 0 -34.5 10t-1.5 26zM389 958q23 98 80 178.5t129 129.5q18 15 35 3q28 -20 18 -43.5t-22.5 -58t-22.5 -71.5q-19 -71 -22.5 -112 t-10 -51.5t-22.5 -10.5h-125q-29 0 -35 10t-2 26z" />
<glyph unicode="&#x201d;" horiz-adv-x="714" d="M76 969q10 25 22.5 59.5t22.5 71.5q20 74 23 113.5t9.5 50t22.5 10.5h125q29 0 35 -10.5t2 -26.5q-23 -98 -80 -178t-129 -129q-19 -15 -35 -5q-28 19 -18 44zM395 969q10 25 22.5 59.5t22.5 71.5q21 71 24 112t9 51.5t23 10.5h125q29 0 34.5 -10.5t1.5 -26.5 q-23 -98 -80 -178t-128 -129q-19 -15 -35 -4q-29 18 -19 43z" />
<glyph unicode="&#x201e;" horiz-adv-x="714" d="M72 -143q61 124 71 270q4 39 31 39h125q29 0 35 -10.5t2 -26.5q-23 -98 -80 -177t-129 -128q-19 -15 -35 -5q-28 19 -20 38zM391 -143q62 126 72 270q4 39 31 39h124q29 0 35 -10.5t2 -26.5q-23 -98 -80 -177t-129 -128q-18 -15 -35 -4q-28 18 -20 37z" />
<glyph unicode="&#x2020;" horiz-adv-x="1024" d="M205 647v66q0 31 11 35t40 4h174v215q0 25 8 37t33 12h80q25 0 29 -11.5t4 -37.5v-215h174q31 0 44 -4.5t13 -26.5v-70q0 -27 -14.5 -32t-46.5 -5h-170v-434q0 -31 -6.5 -39t-24.5 -8h-82q-23 0 -32 9.5t-9 41.5v430h-182q-25 0 -34 7.5t-9 25.5z" />
<glyph unicode="&#x2021;" horiz-adv-x="1024" d="M205 356v68q0 29 11 35t42 6h176v115h-184q-25 0 -34 7t-9 27v64q0 31 11 36t40 5h176v190q0 25 7.5 37t31.5 12h80q25 0 29 -10t4 -39v-190h174q33 0 45 -5t12 -28v-68q0 -29 -14.5 -33.5t-46.5 -4.5h-170v-115h178q29 0 38 -5t9 -32v-63q0 -29 -13.5 -33t-41.5 -4h-170 v-203q0 -33 -5.5 -40t-25.5 -7h-80q-25 0 -33 9t-8 42v199h-180q-29 0 -39 6t-10 22zM414 -287h188h-188z" />
<glyph unicode="&#x2022;" horiz-adv-x="724" d="M172 616q0 78 54.5 132.5t131.5 54.5q78 0 132.5 -54.5t54.5 -132.5t-54.5 -132t-132.5 -54t-132 54.5t-54 131.5z" />
<glyph unicode="&#x2026;" horiz-adv-x="2048" d="M143 53v88q0 16 8.5 30.5t24.5 14.5h135q35 0 43 -10t8 -29v-88q0 -23 -4 -41t-34 -18h-127q-54 0 -54 53zM545 53v88q0 45 33 45h135q35 0 43 -10t8 -29v-88q0 -23 -4 -41t-35 -18h-127q-53 0 -53 53zM940 53v88q0 45 33 45h135q35 0 43 -10t8 -29v-88q0 -23 -5 -41 t-36 -18h-125q-53 0 -53 53z" />
<glyph unicode="&#x202f;" horiz-adv-x="383" />
<glyph unicode="&#x2030;" horiz-adv-x="1822" d="M82 795v192q0 115 64.5 172.5t170.5 57.5q152 0 205 -114q19 -42 19 -106v-202q0 -109 -71 -161q-59 -44 -159 -44t-164.5 50t-64.5 155zM213 809q0 -43 25.5 -70.5t77.5 -27.5t74 29.5t22 64.5v162q0 125 -93 125q-63 0 -84.5 -36t-21.5 -95v-152zM270 11.5 q-6 11.5 11 41.5l571 1112q16 27 25.5 36t40.5 9h75q23 0 24 -10t-16 -39l-573 -1114q-14 -29 -23.5 -38t-27.5 -9h-74q-27 0 -33 11.5zM727 186v191q0 117 64.5 174t173.5 57q151 0 203 -113q20 -42 20 -106v-203q0 -108 -71 -160q-59 -44 -160 -44t-165.5 50t-64.5 154z M860 201q0 -41 25.5 -70t78 -29t74 31t21.5 64v161q0 123 -92 123q-63 0 -85 -35.5t-22 -93.5v-151zM1282 186v191q0 117 64.5 174t171.5 57q151 0 204 -113q19 -42 19 -106v-203q0 -108 -71 -160q-59 -44 -158.5 -44t-164.5 50t-65 154zM1415 201q0 -41 25.5 -70t77.5 -29 q51 0 73.5 31t22.5 64v161q0 123 -92 123q-66 0 -86.5 -35.5t-20.5 -93.5v-151z" />
<glyph unicode="&#x2039;" horiz-adv-x="552" d="M82 461l244 358q22 35 45 19l82 -45q14 -10 13 -19.5t-13 -28.5l-199 -284l209 -289q20 -29 -4 -41l-82 -45q-27 -14 -45 20z" />
<glyph unicode="&#x203a;" horiz-adv-x="552" d="M83 772.5q-1 9.5 13 20.5l82 45q24 17 45 -19l244 -358l-250 -355q-18 -35 -45 -20l-82 45q-25 12 -4 41l209 289l-199 284q-12 18 -13 27.5z" />
<glyph unicode="&#x2044;" horiz-adv-x="864" d="M-102 -338l931 2021h138l-932 -2021h-137z" />
<glyph unicode="&#x205f;" horiz-adv-x="479" />
<glyph unicode="&#x20ac;" horiz-adv-x="919" d="M0 436v62q0 31 10 36t39 5h33v102h-37q-45 0 -45 35v61q0 29 10 34t39 5h33v39q0 326 255 387q77 19 160 19t134 -7.5t86 -17.5q41 -12 88 -43q11 -11 -8 -56q-36 -83 -47 -79q-29 10 -50.5 19.5t-47.5 15.5q-62 14 -140 14t-122 -16.5t-68 -50.5q-41 -55 -41 -209v-15 h237q33 0 48.5 -4t15.5 -27v-63q0 -27 -11.5 -34t-50.5 -7h-239v-102h237q33 0 48.5 -4.5t15.5 -28.5v-64q0 -27 -11.5 -34t-50.5 -7h-239v-55q0 -215 227 -215q98 0 159.5 24.5t90.5 34.5q27 7 42 -118q3 -25 -3 -29q-35 -23 -117 -42t-168 -19t-158.5 14t-133.5 54 q-138 92 -138 296v55h-37q-45 0 -45 35z" />
<glyph unicode="&#xe000;" horiz-adv-x="839" d="M0 0v840h840v-840h-840z" />
<glyph unicode="&#xf700;" horiz-adv-x="933" d="M47 784q0 145 126 214q106 57 271 57h11q156 -6 323 -62q27 -10 19 -32l-19 -91q-5 -25 -39 -12.5t-83 24.5q-124 29 -212 29t-133 -14t-67 -33q-35 -30 -35 -83.5t39 -76t71.5 -28.5t84 -16.5t109.5 -21.5t107 -20q159 -32 204.5 -102t45.5 -154v-116q-2 -39 -10 -80 t-41 -76q-75 -79 -280 -90h-89q-52 0 -69 23q-8 8 -12 22l-74 229q-8 27 -35 27h-51q-25 0 -21 28t7.5 45t4.5 25.5t3 15.5q4 15 28 15h134q24 0 34 -24q10 -31 19.5 -57.5t18.5 -53.5q43 -128 51 -135.5t24 -7.5q111 -2 164 27.5t53 70.5v117q0 72 -70 92q-18 9 -191 41 t-199.5 37.5t-67.5 20.5t-75 44q-79 67 -79 182z" />
<glyph unicode="&#xf701;" d="M-1135 1214l17 93q4 27 31 26h681q27 0 23 -26l-16 -93q-4 -27 -31 -26h-682q-27 0 -23 26z" />
<glyph unicode="&#xf702;" d="M-1149 1212l16 97q4 25 31 24h529q27 0 26 27v84q0 27 27 26h104q27 0 27 -26v-230q0 -27 -27 -26h-712q-27 0 -21 24z" />
<glyph unicode="&#xf703;" d="M-1227 1214l17 93q4 27 30 26h457q14 0 15 5t0 9.5t-1 10.5q0 72 50 121t121 49t120 -49t49 -121q0 -67 -49 -118q-50 -52 -121 -52h-665q-27 0 -23 26zM-606 1358q0 -29 19 -48.5t48 -19.5t48.5 19.5t19.5 48.5t-19.5 48t-48.5 19t-48 -19.5t-19 -47.5z" />
<glyph unicode="&#xf704;" d="M-1225 1214l17 93q4 27 30 26h396q27 0 26 27v82q0 27 27 26h74q27 0 26 -26v-82q0 -27 27 -27h27q27 0 26 27v82q0 27 25 26h106q27 0 27 -26v-230q0 -25 -27 -24h-786q-10 0 -17.5 8t-3.5 18z" />
<glyph unicode="&#xf705;" d="M-649 1233v266q0 27 26 27h107q27 0 27 -27v-266q0 -27 -27 -27h-107q-27 0 -26 27z" />
<glyph unicode="&#xf706;" d="M-985 1397l27 96q10 25 32 25h166q27 0 27 -27v-88q0 -27 26 -27h318q27 0 22 -26l-16 -97q-6 -25 -31 -24h-417q-27 0 -27 24v93q0 27 -27 26h-80q-10 0 -17 7t-3 18z" />
<glyph unicode="&#xf707;" d="M-1012 1282q0 70 44 114t120 50q20 2 32.5 -14.5t29.5 -40.5q14 -14 30 5.5t28.5 34.5t31.5 15q151 -10 176 -115q4 -18 14 -4q12 36 12 66l-2 45q-2 8 -2 14q-6 23 17 23q33 6 50 10q19 5 41 8.5t21 -18.5v-21q0 -113 -69 -174q-74 -51 -144 -51h-20q-23 4 -25 22v17 q0 23 -11 51.5t-58 36.5q-20 6 -62 -39q-4 -6 -13 -6t-20 11t-25.5 24.5t-39.5 8.5q-38 -8 -43 -63v-43q0 -20 -23 -20h-65q-23 0 -23 22z" />
<glyph unicode="&#xf708;" d="M-801 1368v51q0 27 27 27h65q27 0 27 27v57q0 27 27 26h96q27 0 27 -26v-57q0 -27 26 -27h66q27 0 26 -27v-51q0 -27 -26 -27h-66q-27 0 -26 -26v-62q0 -27 -27 -26h-96q-27 0 -27 26v62q0 27 -27 26h-65q-27 0 -27 27z" />
<glyph unicode="&#xf709;" d="M-793 1364v152q0 27 27 26h455q10 0 17 -7t3 -17l-18 -97q-4 -27 -31 -26h-309q-18 0 -19 -19v-35q0 -27 -26 -22l-72 14q-27 4 -27 31z" />
<glyph unicode="&#xf70a;" d="M-295 1229v266q0 27 27 27h106q27 0 27 -27v-266q0 -27 -27 -27h-106q-27 0 -27 27z" />
<glyph unicode="&#xf70b;" d="M-678 1356l27 96q10 25 33 25h165q27 0 27 -27v-90q0 -27 27 -27h317q27 0 23 -26l-17 -95q-6 -25 -30 -24h-418q-27 0 -27 24v93q0 27 -27 26h-79q-10 0 -17.5 7.5t-3.5 17.5z" />
<glyph unicode="&#xf70c;" d="M-733 1266q0 70 45 112q43 45 119 52q20 2 32.5 -14.5t28.5 -41.5q14 -14 30.5 5.5t29 35t30.5 15.5q120 -8 162 -80q10 -19 14 -36t15 -3q12 36 12 65l-2 45q-2 8 -2 15q-5 22 16 22q33 6 51 10q21 6 41.5 9.5t20.5 -19.5v-20q0 -117 -70 -174q-75 -52 -143 -52h-21 q-23 4 -24 23v16q0 23 -11.5 51.5t-58.5 36.5q-23 7 -61 -39q-4 -6 -13.5 -6t-20.5 11t-25.5 24.5t-39 8.5t-32.5 -23.5t-11 -38.5v-43q0 -20 -22 -21h-66q-23 0 -22 23z" />
<glyph unicode="&#xf70d;" d="M-410 1368v51q0 27 27 27h66q27 0 26 27v57q0 27 27 26h96q27 0 27 -26v-57q0 -27 26 -27h66q27 0 26 -27v-51q0 -27 -26 -27h-66q-27 0 -26 -26v-62q0 -27 -27 -26h-96q-27 0 -27 26v62q0 27 -26 26h-66q-27 0 -27 27z" />
<glyph unicode="&#xf70e;" d="M-524 1237v152q0 27 26 26h387q10 0 17.5 -7t3.5 -17l-19 -97q-4 -27 -30 -26h-242q-18 0 -18 -19v-35q0 -27 -27 -22l-72 14q-27 4 -26 31z" />
<glyph unicode="&#xf70f;" horiz-adv-x="1660" d="M92 27v886q0 27 25 37q168 86 370 94q242 0 367 -116q102 -95 102 -236v-463q0 -25 9 -34q16 -12 79.5 -31t132 -19t107.5 8.5t72 32.5q74 52 74 183v632q0 27 26 27h107q25 0 24 -27v-663q0 -238 -201 -320q-79 -32 -173 -32q-192 0 -396 92q-23 12 -22 39v545 q0 127 -101 182q-74 41 -174 41t-166.5 -19.5t-81.5 -27.5q-20 -11 -20 -35v-617q0 -27 27 -26h71q27 0 23 -27l-17 -106q-4 -27 -30 -27h-207q-27 0 -27 27z" />
<glyph unicode="&#xf710;" d="M-541 1266v139q0 10 8.5 18.5t18.5 10.5l72 10q10 4 18 -2t8 -17v-24q0 -25 27 -25h467q27 0 22 -24l-16 -86q-6 -25 -31 -25h-567q-10 0 -18.5 7t-8.5 18z" />
<glyph unicode="&#xf711;" d="M-780 1311q0 77 56 135q55 57 136 57q124 0 178 -119q15 -34 15 -74t-15.5 -75t-41.5 -61q-56 -56 -136 -56q-78 0 -136 56q-56 55 -56 137zM-666 1309.5q0 -31.5 22.5 -54t55.5 -22.5t55.5 22.5t22.5 54.5t-22.5 54t-55.5 22t-55.5 -22.5t-22.5 -54z" />
<glyph unicode="&#xf712;" d="M-995 1372.5q0 61.5 54 116.5t175 55h391q18 0 19 -18v-2l-15 -80v-4q-6 -14 -24 -19h-402q-63 0 -63 -57q0 -25 10 -45.5t51 -20.5h60q60 0 92 37q26 26 41.5 21.5t47.5 -12t69.5 -15.5t89.5 -20q24 -10 24 -33v-74q0 -25 -24 -18l-90 24q-20 4 -37.5 9.5t-32 9.5t-29 9 t-25 -2t-25.5 -19q-49 -39 -120 -39h-57q-114 0 -163 100q-17 35 -17 96.5z" />
<glyph unicode="&#xf713;" d="M-479 1610v225q0 27 26 27h107q27 0 27 -27v-225q0 -27 -27 -27h-107q-27 0 -26 27z" />
<glyph unicode="&#xf714;" d="M-672 1749l27 96q10 25 33 25h166q27 0 26 -27v-88q0 -27 27 -26h317q27 0 23 -27l-17 -96q-6 -25 -30 -25h-418q-27 0 -27 25v92q0 27 -26 26h-80q-10 0 -17.5 7.5t-3.5 17.5z" />
<glyph unicode="&#xf715;" d="M-911 1642q0 70 44 114t119 50q20 2 33 -14t29 -41q14 -14 30.5 5.5t29 34.5t30.5 15q150 -10 176 -114q4 -18 14 -4q13 39 13 65l-2 45q-2 8 -2 14q-6 23 16 23q33 6 51 10q22 5 42 8.5t20 -18.5v-20q0 -115 -70 -175q-74 -51 -144 -51h-20q-23 4 -24 23v16 q0 23 -11.5 51.5t-58.5 36.5q-23 7 -61 -39q-4 -6 -13.5 -6t-20.5 11t-25.5 24.5t-39.5 8.5q-38 -8 -43 -62v-43q0 -20 -22 -21h-66q-23 0 -22 23z" />
<glyph unicode="&#xf716;" d="M-655 1731v51q0 27 26 26h66q27 0 26 27v57q0 27 27 27h96q27 0 27 -27v-57q0 -27 27 -27h65q27 0 27 -26v-51q0 -27 -27 -27h-65q-27 0 -27 -27v-61q0 -27 -27 -27h-96q-27 0 -27 27v61q0 27 -26 27h-66q-27 0 -26 27z" />
<glyph unicode="&#xf717;" d="M-551 1591v152q0 27 27 26h454q10 0 17.5 -7t3.5 -17l-19 -96q-4 -27 -30 -27h-310q-18 0 -18 -18v-35q0 -27 -27 -23l-71 15q-27 4 -27 30z" />
<glyph unicode="&#xf718;" d="M-467 -651l14 82q4 25 31 24h211q27 0 27 -24v-326q0 -27 -27 -27h-104q-27 0 -27 27v193q0 27 -27 26h-77q-25 0 -21 25z" />
<glyph unicode="&#xf719;" d="M-782 -653l14 80q4 27 31 26h188q27 0 27 -26v-177q4 -37 28.5 -61.5t69.5 -24.5q102 0 102 107v156q0 27 27 26h84q27 0 27 -26v-156q0 -100 -59.5 -158.5t-180.5 -58.5q-140 0 -194 88q-31 49 -33 119v34q0 25 -27 25h-82q-27 0 -22 27z" />
<glyph unicode="&#xf71a;" d="M-387 -678q0 55 42 96t99 41t98.5 -41t41.5 -96t-41 -95t-99 -40q-57 0 -99 40t-42 95z" />
<glyph unicode="&#xf71b;" horiz-adv-x="1083" d="M-8 133q-4 25 22 25h70q27 0 27 26v729q0 27 24 37q168 86 371 94q240 0 366 -116q103 -94 103 -236v-882q0 -128 -146 -222q-17 -10 -51.5 5t-80.5 34t-99.5 26t-89 10t-77.5 -2q-97 -12 -171 -75q-10 -8 -27 0q-8 10 -15 18q-19 24 -29 38t1 28q71 76 135 104 q167 75 371 18q52 -15 86 -30q14 -6 22.5 12.5t8.5 59.5v828q0 128 -100 182q-74 41 -174 41t-167 -19.5t-81 -27.5q-21 -12 -21 -35v-778q0 -25 -26 -25h-205q-27 0 -31 25z" />
<glyph unicode="&#xf71c;" horiz-adv-x="1083" d="M-10 133q-4 25 22 25h70q27 0 27 26v729q0 27 24 37q168 86 371 94q240 0 366 -116q103 -94 103 -236v-882q0 -128 -146 -222q-20 -8 -35.5 -3t-32.5 15q-80 44 -112.5 64.5t-38.5 22.5t-16 -4q-84 -57 -160 -80t-176 -23h-31q-27 0 -22 27l12 71q4 10 20.5 9.5t50.5 2.5 q93 8 183 66q53 39 77.5 71.5t35 33t35 -13t58.5 -31.5q56 -30 95 -54q16 -8 28.5 5.5t12.5 66.5v828q0 128 -100 182q-74 41 -174 41t-167 -19.5t-81 -27.5q-21 -12 -21 -35v-778q0 -25 -26 -25h-205q-27 0 -31 25z" />
<glyph unicode="&#xf71d;" horiz-adv-x="1353" d="M127 1006q-4 27 23 26h108q25 0 29 -26l98 -682l2 -52q0 -10 2 -10t4 10l15 52l227 442q9 22 39 22h6q27 0 39 -22l227 -442l15 -52q2 -10 4 -10t2 10v52l20 131q8 49 13.5 92t8.5 62.5t-19 46.5q-21 28 -46.5 42.5t-33.5 21.5q-23 18 -20 34t3 23t2 15t9 11.5t15.5 7.5 t19.5 8t15 8q80 45 80 115v86q0 27 15.5 30t33 6t34 6t30.5 6t20 3q29 7 29 -23v-67q0 -138 -114 -221q-5 -4 18.5 -27.5t48.5 -73t16 -98.5q0 -17 -15 -122l-22 -154q-16 -119 -34 -266q-4 -27 -29 -27h-88q-25 0 -39 23l-250 473q-10 20 -24 0l-248 -473q-14 -23 -39 -23 h-88q-27 0 -31 27z" />
</font>
</defs>
</svg>
